<?xml version="1.0" encoding="UTF-8"?> <!-- Generator: Adobe Illustrator 23.0.2, SVG Export Plug-In . SVG Version: 6.00 Build 0) --> <svg xmlns="http://www.w3.org/2000/svg" xmlns:xlink="http://www.w3.org/1999/xlink" id="Layer_1" x="0px" y="0px" viewBox="0 0 400 245" style="enable-background:new 0 0 400 245;" xml:space="preserve"> <style type="text/css"> .st0{fill-rule:evenodd;clip-rule:evenodd;fill:#D33A33;} .st1{fill:#EF3F3B;} .st2{fill:#231F20;} .st3{fill-rule:evenodd;clip-rule:evenodd;fill:#F1D7B8;} .st4{fill-rule:evenodd;clip-rule:evenodd;fill:#345162;} .st5{fill-rule:evenodd;clip-rule:evenodd;fill:#6E6C6E;} .st6{fill-rule:evenodd;clip-rule:evenodd;fill:#DCD9D8;} .st7{fill-rule:evenodd;clip-rule:evenodd;fill:#F7E4CE;} .st8{fill:#F7E4CE;} .st9{fill-rule:evenodd;clip-rule:evenodd;fill:#49738C;} .st10{fill-rule:evenodd;clip-rule:evenodd;fill:#FFFFFF;} .st11{fill:#FFFFFF;} .st12{fill:#D33A33;} .st13{fill-rule:evenodd;clip-rule:evenodd;fill:#EF3F3B;} .st14{fill-rule:evenodd;clip-rule:evenodd;fill:#231F20;} .st15{fill-rule:evenodd;clip-rule:evenodd;fill:#82B1C4;} .st16{fill-rule:evenodd;clip-rule:evenodd;fill:#1D1919;} .st17{enable-background:new ;} .st18{fill:#010101;} </style> <g> <g id="g3393"> <g id="path22"> <path class="st0" d="M266.2,92.5c0,37.4-29.6,67.7-66.2,67.7c-36.6,0-66.2-30.3-66.2-67.7c0-37.4,29.6-67.7,66.2-67.7 C236.6,24.8,266.2,55.1,266.2,92.5"></path> </g> <g id="path24"> <path class="st1" d="M136.5,109.3c0,0-4.8-70.6,60.3-72.6l-4.5-7.6L156.9,41l-10.1,11.6L138,69.5l-5,19.7l1.5,13.1"></path> </g> <g id="path26"> <path class="st2" d="M154.7,46.4c-11.6,11.9-18.8,28.3-18.8,46.4l0,0c0,18.1,7.2,34.6,18.8,46.4l0,0 c11.6,11.9,27.6,19.2,45.3,19.2l0,0c17.7,0,33.7-7.3,45.3-19.2l0,0c11.6-11.9,18.8-28.3,18.8-46.4l0,0c0-18.1-7.2-34.6-18.8-46.4 l0,0c-11.6-11.9-27.6-19.2-45.3-19.2l0,0C182.3,27.1,166.3,34.5,154.7,46.4L154.7,46.4z M151.7,142.1c-12.3-12.6-20-30.1-20-49.3 l0,0c0-19.2,7.6-36.7,20-49.3l0,0C164.1,30.9,181.1,23,200,23l0,0c18.9,0,35.9,7.8,48.3,20.4l0,0c12.3,12.6,20,30.1,20,49.3l0,0 c0,19.2-7.6,36.7-20,49.3l0,0c-12.3,12.6-29.4,20.4-48.3,20.4l0,0C181.1,162.5,164.1,154.7,151.7,142.1L151.7,142.1"></path> </g> <g id="path28"> <path class="st3" d="M227.9,92.9l-10.1,1.5l-13.6,1.5l-8.8,0.3l-8.6-0.3l-6.6-2l-5.8-6.3l-4.5-12.9l-1-2.8l-6.1-2l-3.5-5.8 l-2.5-8.3l2.8-7.3l6.6-2.3l5.3,2.5l2.5,5.5l3-0.5l1-1.3l-1-5.8l-0.3-7.3l1.5-10.1l-0.1-5.8l4.6-7.3l8.1-5.8l14.1-6.1l15.6,2.3 l13.6,9.8l6.3,10.1l4,7.3l1,18.2l-3,15.6l-5.5,13.9l-5.3,7.3"></path> </g> <g id="path30_1_"> <path class="st4" d="M219.3,136.5l-36.1,1.5v6.1l3,21.2l-1.5,1.8l-25.2-8.6l-1.8-3l-2.5-28.5l-5.8-17.1l-1.3-4l20.2-13.9l6.3-2.5 l5.5,6.8l4.8,4.3l5.5,1.8l2.5,0.8l3,13.1l2.3,2.8l5.8-2l-4,7.8l21.9,10.3L219.3,136.5"></path> </g> <g id="path32"> <path class="st5" d="M159.5,48.5l6.6-2.3l5.3,2.5l2.5,5.5l3-0.5l0.8-3l-1.5-5.8l1.5-13.9l-1.3-7.6l4.5-5.3l9.8-7.8L188,6.7 l-13.9,6.8l-5.8,4.5l-3.3,7.1l-5,6.8l-1.5,8.1L159.5,48.5"></path> </g> <g id="path34"> <path class="st6" d="M169.9,24.8c0,0,3.8-9.3,18.9-13.9c15.1-4.5,0.8-3.3,0.8-3.3L173.1,14l-6.3,6.3l-2.8,5L169.9,24.8"></path> </g> <g id="path36"> <path class="st6" d="M162.3,46.8c0,0-5.3-17.6,14.9-20.2l-0.8-3l-13.9,3.3l-4,13.1l1,8.6L162.3,46.8"></path> </g> <g id="path38_1_"> <path class="st7" d="M170.4,70.2l3.3-3.2c0,0,1.5,0.2,1.7,1.9c0.3,1.8,1,17.6,11.8,26.2c1,0.8-8.1-1.3-8.1-1.3l-8.1-12.6"></path> </g> <g id="path40_1_"> <path class="st7" d="M216.8,65.4c0,0,0.6-7.6,2.6-7.1c2.1,0.6,2.1,2.6,2.1,2.6S216.5,64.3,216.8,65.4"></path> </g> <g id="path42_1_"> <path class="st8" d="M237.7,37.4c0,0-4.2,0.9-4.5,4.5c-0.4,3.7,4.5,0.8,5.3,0.5"></path> </g> <g id="path44_1_"> <path class="st8" d="M207.2,37.7c0,0-5.5,0.8-5.5,4.3c0,3.5,6.3,3.3,8.1,1.8"></path> </g> <g id="path46_1_"> <path class="st7" d="M172.9,54.1c0,0-9.6-5.8-10.6-0.3c-1,5.5-3.3,9.6,1.5,15.4l-3.3-1l-3-7.8l-1-7.6l5.8-6.1l6.6,0.5l3.8,3 L172.9,54.1"></path> </g> <g id="path48"> <path class="st7" d="M177.4,38.2c0,0,4.3-22.2,26-26.5c17.9-3.5,27.2,0.8,30.8,4.8c0,0-15.9-18.9-31-13.1 c-15.1,5.8-26.2,16.4-26,23.2C177.6,38.2,177.4,38.2,177.4,38.2"></path> </g> <g id="path50"> <path class="st7" d="M235.9,19c0,0-7.3-0.3-7.6,6.3c0,0,0,1,0.5,2c0,0,5.8-6.6,9.3-3"></path> </g> <g id="path52"> <path class="st7" d="M203.9,28c0,0-1.3-10.1-9.8-4.2c-5.5,3.8-5,9.1-4,10.1c1,1,0.7,3,1.5,1.6c0.8-1.4,0.5-5.9,3.3-7.2 C197.6,27.1,202.2,25.7,203.9,28"></path> </g> <g id="path54_1_"> <path class="st9" d="M180.2,96.2l-23.7,10.6c0,0,9.8,39.1,4.8,51.2l-3.5-1.3l-0.3-14.9l-6.6-28.2l-2.8-7.8l24.7-16.6L180.2,96.2"></path> </g> <g id="path56_1_"> <path class="st9" d="M182.6,117.8l3.4,4.1V137h-4c0,0-0.5-10.6-0.5-11.9c0-1.3,0.5-5.8,0.5-5.8"></path> </g> <g id="path58_1_"> <path class="st9" d="M182.7,139.3l-11.3,0.5l3.3,2.3l8.1,1.3"></path> </g> <g id="path60_1_"> <path class="st4" d="M221.6,136.8l9.3-0.3l2.3,23.2l-9.6,1.3L221.6,136.8"></path> </g> <g id="path62_1_"> <path class="st4" d="M224.1,136.8l14.1-0.8c0,0,5.8-14.6,5.8-15.4c0-0.8,5-21.2,5-21.2l-11.3-11.8l-2.3-2l-6.1,6.1v23.4 L224.1,136.8"></path> </g> <g id="path64_1_"> <path class="st9" d="M230.4,135l-8.8,1.8l1.3,7.1c3.3,1.5,8.8-2.5,8.8-2.5"></path> </g> <g id="path66_1_"> <path class="st9" d="M230.6,90.9l17.6,13.1l0.5-6.1l-13.4-12.4L230.6,90.9"></path> </g> <g id="path68_1_"> <path class="st10" d="M191.5,186.4l-5.2-21.2l-2.6-15.6l-0.4-11.6l23.6-1.3l14.7,0l-1.3,26.5l2.3,20.4l-0.3,3.8l-19.2,1.5 L191.5,186.4"></path> </g> <g id="path70_1_"> <path class="st6" d="M218.3,136.5c0,0-1.3,26.2,2.5,44.9c0,0-7.6,4.8-18.7,6.1l21.2-0.8l2.5-1.5l-3-41.3l-0.8-8.8"></path> </g> <g id="path72_1_"> <path class="st10" d="M233.6,157.7l9.8-2.8l18.7-1l2.8-8.6l-5-14.9l-5.8-0.8l-8.1,2.5l-7.7,3.8l-4.1-0.8l-3.2,1.3"></path> </g> <g id="path74_1_"> <path class="st6" d="M233.4,152.7c0,0,6.6-3,7.6-2.8l-2.8-13.9l3.3-1.3c0,0,2.3,13.1,2.3,14.6c0,0,14.1,0.8,15.4,0.8 c0,0,3-5.8,2.3-11.8l2.8,8.1l0.3,4.5l-4,6.1l-4.5,1l-7.6-0.3l-2.5-3.3l-8.8,1.3l-2.8,1"></path> </g> <g id="path76"> <path class="st11" d="M223.5,134.8l-5.5-14.1l-5.8-8.3c0,0,1.3-3.5,3-3.5s5.8,0,5.8,0l5.5,2l-0.5,9.3L223.5,134.8"></path> </g> <g id="path78"> <path class="st6" d="M224.6,130c0,0-7.1-13.6-7.1-15.6c0,0,1.3-3,3-2.3c1.8,0.8,5.5,2.8,5.5,2.8v-4.8l-8.6-1.8l-5.8,0.8l9.8,23.2 l2,0.3"></path> </g> <g id="path80_1_"> <path class="st11" d="M193.7,96.7l-7-0.8l-6.6-2v2.3l3.2,3.5l10.1,4.5"></path> </g> <g id="path82_1_"> <path class="st6" d="M182.5,97.4c0,0,7.8,3.3,10.3,2.5l0.3,3l-7.1-1.5l-4.3-3L182.5,97.4"></path> </g> <g id="path84_1_"> <path class="st0" d="M233.6,109.7c-4.3-0.1-8.1-0.6-11.5-1.6c0.2-1.4-0.2-2.7,0.1-3.7c0.9-0.7,2.5-0.7,3.9-0.8 c-1.2-0.6-3-0.8-4.4-0.5c0-1-0.5-1.6-0.7-2.3c2.4-0.9,8.1-6.5,11.3-4.6c1.5,0.9,2.2,5.9,2.3,8.4 C234.7,106.5,234.4,108.6,233.6,109.7"></path> </g> <g id="path86_1_"> <path class="st12" d="M233.8,110.3l-0.3,0c-4.4-0.1-8.3-0.7-11.7-1.6l-0.5-0.1l0.1-0.5c0.1-0.6,0.1-1.2,0-1.8 c0-0.7-0.1-1.4,0.1-2.1l0.1-0.2l0.2-0.1c0.2-0.1,0.4-0.3,0.6-0.3c-0.2,0-0.4,0.1-0.6,0.1l-0.7,0.2l0-0.7c0-0.6-0.2-1-0.4-1.4 c-0.1-0.2-0.2-0.5-0.3-0.7l-0.2-0.6l0.6-0.2c0.7-0.2,1.7-0.9,2.8-1.7c2.9-1.9,6.4-4.4,9-2.9c2.2,1.3,2.5,8.1,2.6,8.9 c0.1,1.2,0.1,4-1.1,5.6L233.8,110.3z M222.7,107.6c3,0.8,6.6,1.3,10.6,1.4c0.6-0.9,0.8-2.6,0.7-4.5c-0.2-3.3-1-7.3-2-7.9 c-1.9-1.1-5.2,1.2-7.7,2.8c-1,0.6-1.8,1.2-2.5,1.6c0,0,0,0.1,0,0.1c0.2,0.4,0.3,0.7,0.4,1.2c1.4-0.2,2.9,0.1,4.1,0.7l1.9,0.9 l-2.1,0.2c-0.3,0-0.6,0.1-0.9,0.1c-1,0.1-2,0.2-2.6,0.5c-0.1,0.4-0.1,0.9,0,1.4C222.7,106.6,222.7,107.1,222.7,107.6z"></path> </g> <g id="path88_1_"> <path class="st0" d="M213.1,102.7c0,0.3,0,0.6,0,1c-1.3,0.9-3.5,0.9-5,1.6c2.2,0.1,3.9,0.6,5.3,1.3c0,0.8-0.1,1.6-0.1,2.4 c-2.4,1.7-4.7,4.2-7.6,5.7c-1.4,0.7-6.1,2.7-7.6,2.3c-0.8-0.2-0.9-1.2-1.2-2.2c-0.7-2.1-2.3-5.3-2.4-8.4 c-0.2-3.9-0.6-10.5,3.6-9.7c3.4,0.6,7.3,2.2,10,3.7C209.7,101.4,210.7,102.5,213.1,102.7"></path> </g> <g id="path90_1_"> <path class="st12" d="M198.6,117.7c-0.2,0-0.4,0-0.5-0.1c-1-0.2-1.3-1.2-1.5-2c-0.1-0.2-0.1-0.4-0.2-0.6c-0.2-0.5-0.4-1-0.6-1.6 c-0.8-2-1.8-4.5-1.9-7l0-0.3c-0.1-3.2-0.4-7.7,1.6-9.4c0.7-0.6,1.6-0.8,2.7-0.6c3.8,0.7,7.9,2.5,10.2,3.7 c0.4,0.2,0.8,0.5,1.2,0.7c1,0.7,1.9,1.2,3.6,1.4l0.6,0l-0.1,1.9l-0.3,0.2c-0.7,0.5-1.6,0.7-2.4,0.9c0.9,0.2,1.9,0.6,2.7,1 l0.4,0.2l-0.1,3.1l-0.3,0.2c-1,0.7-1.9,1.4-2.9,2.3c-1.5,1.2-3,2.5-4.7,3.5C205,115.9,200.7,117.7,198.6,117.7z M197.5,97.4 c-0.5,0-0.8,0.1-1.2,0.4c-1.5,1.3-1.3,5.6-1.2,8.4l0,0.3c0.1,2.3,1,4.7,1.8,6.6c0.2,0.6,0.5,1.2,0.6,1.7c0.1,0.2,0.1,0.4,0.2,0.7 c0.2,0.7,0.3,1.1,0.6,1.1c1.1,0.3,5.5-1.4,7.2-2.3c1.7-0.9,3.1-2.2,4.5-3.4c0.9-0.8,1.8-1.5,2.7-2.2l0.1-1.7 c-1.5-0.7-3-1-4.7-1.1l-2.3-0.1l2.1-1c0.7-0.4,1.6-0.6,2.4-0.7c0.8-0.2,1.6-0.4,2.2-0.7l0-0.1c-1.6-0.2-2.6-0.9-3.5-1.5 c-0.3-0.2-0.7-0.5-1.1-0.7c-2.2-1.2-6.1-2.9-9.8-3.6C197.8,97.4,197.6,97.4,197.5,97.4z"></path> </g> <g id="path92_1_"> <path class="st0" d="M215.5,107.3c-0.4-2.1-0.8-2.7-0.6-4.6C220.6,98.9,221.6,109.2,215.5,107.3"></path> </g> <g id="path94_1_"> <path class="st12" d="M217,108.2c-0.5,0-1-0.1-1.6-0.3l-0.4-0.1l-0.1-0.4c-0.1-0.7-0.2-1.2-0.3-1.6c-0.2-1-0.4-1.8-0.3-3.1l0-0.3 l0.2-0.2c2.5-1.7,4.1-0.7,4.6-0.2c1.2,1.1,1.4,3.1,0.6,4.6C219.5,107.2,218.6,108.2,217,108.2z M216.1,106.8 c1.2,0.3,2.2,0,2.7-0.8c0.6-0.9,0.4-2.4-0.4-3.1c-0.7-0.6-1.7-0.6-2.9,0.1c-0.1,1,0.1,1.6,0.3,2.4 C215.9,105.9,216,106.3,216.1,106.8z"></path> </g> <g id="path96_1_"> <path class="st13" d="M223.8,109c0,0-1.8-2.5-0.5-3.3c1.3-0.8,2.5,0,3.3-1.3c0.8-1.3,0-2,0.3-3.5c0.3-1.5,1.5-1.8,2.8-2 c1.3-0.3,4.8-0.8,5.3,0.5l-1.5-4.5l-3-1l-9.6,5.5l-0.5,2.8v5.5"></path> </g> <g id="path98_1_"> <path class="st13" d="M197.3,117.4c-0.3-3.9-0.6-7.9-1-11.8c-0.5-5.9,1.4-4.8,6.5-4.8c0.8,0,4.8,0.9,5.1,1.5 c1.4,2.8-2.3,2.2,1.6,4.3c3.3,1.8,9.1-1.1,7.7-5.1c-0.7-0.9-3.9-0.3-5-0.9c-2-1-3.9-2-5.9-3.1c-2.5-1.3-8.3-3.2-11-1.4 c-6.8,4.6,0.4,16.1,2.8,20.9"></path> </g> <g id="path100"> <path class="st14" d="M203.9,28c-6.9-1.6-10.3,2.9-12.4,7.5c-1.9-0.5-1.1-3-0.7-4.3c1.2-3.4,6.2-7.9,10.2-7.3 C202.9,24.3,205.2,25.9,203.9,28"></path> </g> <g id="path102_1_"> <path class="st14" d="M237.4,35.9c0.1,0,0.2,0,0.3,0c1.6,3.2,2.9,6.6,4.9,9.5c-1.3,3.1-9.9,5.8-9.8,0.3c1.9-0.8,5.1-0.2,6.7-1.2 C238.6,41.8,237.2,39.6,237.4,35.9"></path> </g> <g id="path104_1_"> <path class="st14" d="M207.4,35.9c1.5,2.7,2,5.5,4,7.6c0.9,0.9,2.8,2,1.9,4.6c-0.2,0.6-1.8,1.9-2.7,2.2c-3.3,1-10.9,0.2-8.3-3.9 c2.7,0.1,6.3,1.8,8.4-0.2C209.2,43.8,206.4,38.8,207.4,35.9"></path> </g> <g id="path106"> <path class="st14" d="M236.2,63.4c-4.9,3.2-10.4,6.6-18.5,5.8c-1.7-1.5-2.4-4.8-0.7-7c0.9,1.5,0.3,4.3,2.8,4.7 c4.6,0.8,9.9-2.8,13.2-4.1c2-3.4-0.2-4.7-2-6.9c-3.8-4.5-8.8-10.2-8.6-17c1.5-1.1,1.7,1.7,1.9,2.2c2,4.6,6.9,10.5,10.5,14.4 c0.9,1,2.4,1.9,2.5,2.5C237.7,59.9,236,62.2,236.2,63.4"></path> </g> <g id="path108_1_"> <path class="st14" d="M171.2,60.1c-1.5-0.9-1.9-4.8-3.7-4.9c-2.6-0.2-2.1,5-2.1,8.1c-1.8-1.6-2.1-6.6-0.8-9.2 c-1.5-0.7-2.2,0.8-3,1.4C162.6,47.7,172.9,51.9,171.2,60.1"></path> </g> <g id="path110"> <path class="st14" d="M239.3,66.6c-2.3,4.4-5.5,9.2-12.3,9.3c-0.1-1.4-0.2-3.6,0-4.4C232.2,71,235.4,68.4,239.3,66.6"></path> </g> <g id="path112"> <path class="st14" d="M207,69.5c4.3,2.3,12.2,2.5,18,2.3c0.3,1.3,0.3,2.9,0.3,4.4C217.9,76.6,209,74.7,207,69.5"></path> </g> <g id="path114"> <path class="st14" d="M206.2,73.7c3,7.5,13.2,6.6,21.8,6.4c-0.4,1-1.2,2.1-2.2,2.5c-2.8,1.1-10.4,2-14.2-0.1 c-2.4-1.3-4-4.2-5.3-5.9C205.6,75.8,202.4,73.7,206.2,73.7"></path> </g> <g id="path116"> <path class="st15" d="M235.8,114.8c-3.5,6-6.8,12.1-11,17.4c1.7-5.1,2.5-13.6,2.7-20.1C231.2,110.3,234.3,112.4,235.8,114.8"></path> </g> <g id="path118_1_"> <path class="st14" d="M254.6,136.3c-3.9,0.8-6.6,4.6-10.5,4.3C246.2,137.6,249.9,136.4,254.6,136.3"></path> </g> <g id="path120_1_"> <path class="st14" d="M256.3,142.4c-3.2,0.3-6.9,0.9-10.1,0.6C247.7,140.6,253.6,141.4,256.3,142.4"></path> </g> <g id="path122_1_"> <path class="st14" d="M257.4,147.6c-3.6,0.1-8,0-11.4-0.3C248,145.2,255.1,146.5,257.4,147.6"></path> </g> <g id="path124_1_"> <path class="st6" d="M229.1,162c0.5,4.5,2.3,9,2.1,14c-2,0.7-3.1,1.2-5.8,1.2c-0.2-4.2-0.7-10.6-0.6-14.5 C226.1,162.8,228,161.8,229.1,162"></path> </g> <g id="path126_1_"> <path class="st3" d="M223.3,95.9c-1.8,1.2-3.3,2.6-5,3.9c-3.8,0.2-5.9-0.3-8.7-2.5c0-0.2,0.3-0.1,0.3-0.3 C214,98.8,219.2,96.2,223.3,95.9"></path> </g> <g id="path128"> <path class="st15" d="M201.8,123.8c1.1-4.9,5.5-7.4,9.5-10.1c4.1,5.2,6.6,12,9.4,18.5C214.2,130.2,207.6,127,201.8,123.8"></path> </g> <g id="path130"> <path class="st14" d="M224.8,162.7c-0.2,4,0.4,10.4,0.6,14.5c2.6,0,3.8-0.6,5.8-1.2c0.2-4.9-1.6-9.5-2.1-14 C228,161.8,226.1,162.8,224.8,162.7z M183.6,140c1.7,16.1,4.3,29.5,8.9,43.8c10.3,3.1,22.7,3.4,31.8,0.6 c-1.7-8-0.9-17.8-1.9-26.4c-0.7-6.4-0.4-12.9-1.4-19.5C210,136.3,194.4,138,183.6,140z M223.6,138.6c-0.1,6.9,0.3,13.7,0.8,20.6 c2.6-0.4,4.4-0.7,6.9-1.2c-0.8-6.6-0.7-14.1-2.3-20C227.1,138.1,225.5,138,223.6,138.6z M237,137.5c-1.3-0.3-2.7,0-3.9,0 c0.6,5.6,1.9,11.8,2.4,17.7c1.9,0.1,2.9-0.8,4.5-1.1C240.1,149,239.5,141.8,237,137.5L237,137.5z M257.4,156.1 c3.9-1,6.4-5.8,5.3-10.7c-0.7-3.3-2.1-9.6-3.5-11.7c-1-1.6-3.9-3.6-6.1-2.2c-3.7,2.3-10.1,3-12.8,5.9c1.3,4.5,1.8,10.6,2.3,16.2 c4.6,0.3,10.2-1.3,14,0.4c-2.7,0.9-6.1,0.9-8.4,2.1C250.1,157,254.5,156.8,257.4,156.1L257.4,156.1z M220.8,132.2 c-2.8-6.5-5.3-13.2-9.4-18.5c-4,2.7-8.4,5.2-9.5,10.1C207.6,127,214.2,130.2,220.8,132.2z M227.6,112c-0.3,6.5-1,15-2.7,20.1 c4.1-5.3,7.5-11.4,11-17.4C234.3,112.4,231.2,110.3,227.6,112z M219.9,109.3c-1.6-0.2-2.9,1.8-4.9,0.9c-0.5,0.5-0.9,1.1-1.4,1.6 c4.5,5.4,6.5,13.1,10,19.5c1.9-6.1,1.6-12.8,2.1-19.5C223.1,112,221.7,109.5,219.9,109.3z M214.9,102.7c-0.2,1.9,0.3,2.5,0.6,4.6 C221.6,109.2,220.6,98.9,214.9,102.7z M208.1,100.5c-2.6-1.4-6.6-3-10-3.7c-4.2-0.8-3.8,5.7-3.6,9.7c0.1,3.1,1.7,6.4,2.4,8.4 c0.3,1,0.4,2,1.2,2.2c1.5,0.3,6.2-1.6,7.6-2.3c2.9-1.6,5.1-4.1,7.6-5.7c0-0.8,0.1-1.6,0.1-2.4c-1.5-0.7-3.2-1.3-5.3-1.3 c1.5-0.7,3.6-0.7,5-1.6c0-0.3,0-0.7,0-1C210.7,102.5,209.7,101.4,208.1,100.5z M183,95.9c-2.2,2.2,6.1,5.2,8.8,5.4 c0-1.4,0.8-2.7,0.6-3.7C189.3,97.1,185.1,97.4,183,95.9z M209.9,97c0,0.2-0.3,0.1-0.3,0.3c2.8,2.2,4.9,2.6,8.7,2.5 c1.7-1.3,3.3-2.7,5-3.9C219.2,96.2,214,98.8,209.9,97z M234.6,104.5c-0.1-2.5-0.8-7.5-2.3-8.4c-3.2-1.9-8.9,3.8-11.3,4.6 c0.3,0.8,0.7,1.4,0.7,2.3c1.4-0.4,3.2-0.1,4.4,0.5c-1.4,0.2-3,0.1-3.9,0.8c-0.3,1,0.1,2.4-0.1,3.7c3.4,1,7.2,1.5,11.5,1.6 C234.4,108.6,234.7,106.5,234.6,104.5z M179.3,98.1c-0.7-0.5-5.3-6.5-6-6.3c-8.4,3.3-16.2,9-23.2,14.4 c6.7,14.3,9.4,31.9,9.9,48.9c7.7,3.6,14.4,8.7,24.8,9.3c-1.2-8.5-2.3-16.1-3-24.1c-2.6-1.1-6.4,0-8.8-0.3c0-2.9,3.7-1.3,4-3.3 c0.2-1.5-2.1-1.6-1.3-4c1.9,0.7,2.9,2.2,5,2.8c1.9-4.1,0-11.3,0.2-14.7c0.1-0.6,0.3-3.5,1.8-3c1.3,0.5-0.1,7.7,0.1,10.9 c0.1,3-0.4,5.8,0.8,7.7c10-1.4,20.2-2.3,31.1-2.5c-2.4-1-5.2-2-8.3-3.8c-1.7-1-7-2.9-7.5-4.5c-0.8-2.6,2-3.9,2.5-6.1 c-5.1,2.8-6.1-2.6-7.3-6.5c-1.1-3.5-1.7-6.1-2-8.1C187.8,102.9,183.1,100.8,179.3,98.1L179.3,98.1z M230.1,92.5 c7-3.4,8.3,12.7,5.5,17.8c0.4,1.5,1.9,2.1,2.5,3.5c-3.9,7-8.2,13.5-12.2,20.4c3-1.8,7.2-0.3,10.7-1.7c1.3-0.5,2.2-3.4,3.2-5.8 c2.7-6.4,5.4-14.5,6.7-20.6c0.3-1.4,1-4.4,0.9-5.7c-0.3-2.2-3.3-3.9-4.9-5.2c-2.8-2.5-4.6-4.8-7.6-7.2 C233.7,89.9,231.1,91.1,230.1,92.5L230.1,92.5z M163.3,30.5c-3.3,3.7-2.6,10.5-2.2,15.4c6-3.8,14,0.3,13.9,6.7 c2.9-0.1,1.1-3.6,0.6-5.9c-1.7-7.4,2.9-15.4,0.2-22.2C170.6,25.1,166.4,27.2,163.3,30.5L163.3,30.5z M187.2,9.3 c-7.5,2.1-17.2,7.6-20.3,14.4c2.4-0.3,4.1-1.6,6.4-1.7c0.9-0.1,2.1,0.4,3.1,0.1c2-0.5,3.8-5.1,5.3-6.8c1.5-1.7,3.3-2.4,4.6-3.9 c0.8-0.4,2-0.4,2-1.6C188,9.4,187.6,9.2,187.2,9.3z M226.4,11.3c-7.8-4.4-21.1-7.7-29.4-3.6c-6.7,3.3-15.8,8.9-18.9,15.9 c2.9,6.8-0.9,13-1.1,19.9c-0.1,3.7,1.7,6.9,1.9,10.8c-1,1.6-4,1.8-6.1,1.7c-0.7-3.5-1.9-7.5-5.6-7.9c-5.1-0.6-8.9,3.7-9.1,8.1 c-0.3,5.2,4,13.9,10.1,13.3c2.3-0.2,2.9-2.6,5.5-2.6c1.4,2.8-2.1,3.6-2.5,5.6c-0.1,0.5,0.3,2.5,0.5,3.4c1.1,4.6,3.6,10.5,6,13.9 c3.1,4.4,9.1,5.1,15.6,5.5c1.2-2.5,5.4-2.3,8.2-1.6c-3.3-1.3-6.4-4.5-9-7.4c-3-3.3-6-6.8-6.1-11c5.6,7.7,10.2,14.5,20.4,17.9 c7.7,2.6,16.7-1.2,22.6-5.3c2.5-1.7,3.9-4.5,5.7-7c6.5-9.4,9.6-22.8,8.9-35.7c-0.3-5.3-0.3-10.7-2.1-14.3 c-1.9-3.8-8.2-7.1-11.9-3.7c-0.7-3.7,3.1-5.9,7.5-4.6C234.2,18.7,230.9,13.8,226.4,11.3L226.4,11.3z M241,132 c6.1-3,17.5-8.2,21.4,0c1.4,3,3.1,8.1,3.8,11.2c1,4.4-1.1,13.6-5.6,15.1c-4,1.3-8.7,1.2-13.5,0.3c-0.6-0.5-1.2-1.3-1.6-2.1 c-3.4-0.1-6.7,0.2-9.4,1.6c0.3,2.5-1.5,2.9-3.1,3.5c-1.2,4.7,2.4,10.9,1.5,15.2c-0.6,3.1-4.4,3.6-7.2,4.1 c-0.1,1.7,0.1,3.1,0.3,4.6c-0.6,2.3-3.5,3.7-6.2,4c-8.9,1.1-22.4,1.5-31-1.5c-2.4-5.9-4.3-13-6.3-19.7 c-8.3,0.9-15.1-3.6-21.5-6.5c-2.2-1-5.2-1.6-6.1-3.3c-0.8-1.7-0.5-5-0.7-8c-0.5-7.8-0.9-15.4-3-23.5c-0.9-3.6-2.6-6.8-3.7-10.3 c-1-3.2-2.9-7.2-3.3-10.4c-0.7-4.8,3.8-5,6.6-7.1c4.4-3.2,7.9-5,12.7-7.8c1.4-0.9,5.7-3,6.2-4c1-2-1.7-4.7-2.4-6.3 c-1.1-2.4-1.7-4.5-1.9-6.9c-4-0.6-7.1-3-8.9-5.7c-3-4.5-5.2-12.7-2.5-19c0.2-0.5,1.2-1.5,1.4-2.2c0.3-1.5-0.6-3.5-0.6-5.1 c-0.3-8.2,1.4-15.2,6.9-17.7c2.2-8.9,10.2-11.9,17.8-16.3c2.8-1.7,5.9-2.7,9.1-3.9C202-0.1,219.6,0.7,229.2,8 c4,3.1,10.5,9.5,12.8,14.2c6.1,12.4,5.7,33,1.4,48c-0.6,2-1.4,5-2.6,7.4c-0.8,1.7-3.3,5.1-3,6.6c0.3,1.5,5.8,5.7,6.9,6.8 c2.1,2,6.1,4.7,6.4,7.3c0.3,2.7-1.2,6.4-2,9.1C246.5,116.1,244,124.2,241,132"></path> </g> <g id="path132"> <path class="st7" d="M200.2,71.4c0.3-0.4,2.2-1.1,4.7,0.1c0,0-3,0.5-2.8,5.5l-1.3-0.3C200.9,76.8,199.6,72.2,200.2,71.4"></path> </g> <g id="path134"> <path class="st16" d="M222.3,114.7c0,0.8-0.6,1.4-1.4,1.4c-0.8,0-1.4-0.6-1.4-1.4c0-0.8,0.6-1.4,1.4-1.4 C221.7,113.3,222.3,114,222.3,114.7"></path> </g> <g id="path136"> <path class="st16" d="M223.7,121.1c0,0.8-0.6,1.4-1.4,1.4c-0.8,0-1.4-0.6-1.4-1.4s0.6-1.4,1.4-1.4 C223.1,119.8,223.7,120.4,223.7,121.1"></path> </g> </g> <g class="st17"> <path class="st18" d="M118.6,205.4c-0.7,0.1-1.4,0.2-1.9,0.3c-0.5,0.1-1.1,0.2-1.7,0.4c-0.8,0.2-1.2,0.6-1.4,1.1 c-0.2,0.5-0.3,1.1-0.3,1.8v21.6c0,2-0.4,3.8-1.2,5.5c-0.8,1.7-1.9,3-3.3,4.2c-1.4,1.1-3,1.9-4.7,2.5c-1.7,0.6-3.6,0.8-5.6,0.8 c-3.4,0-6.2-0.8-8.3-2.5c-2.1-1.7-3.2-3.9-3.2-6.8c0-1.7,0.5-3.1,1.4-4.2c1-1.1,2.3-1.7,4-1.7c1.6,0,2.9,0.5,3.8,1.4 c0.9,0.9,1.4,2.1,1.4,3.5c0,1.2-0.4,2.3-1.2,3.3c-0.8,1-1.8,1.9-2.8,2.8v0.4c0.2,0.4,0.5,0.7,1.1,0.9c0.6,0.3,1.1,0.4,1.7,0.4 c2.2,0,3.9-0.8,5.2-2.4c1.3-1.6,1.9-4,1.9-7.2v-22.1c0-0.7-0.1-1.2-0.3-1.7c-0.2-0.4-0.7-0.8-1.5-1.2c-0.6-0.2-1.2-0.4-2-0.6 c-0.8-0.2-1.4-0.3-2-0.4v-2.1h20.9V205.4z"></path> <path class="st18" d="M151.3,235.7c-0.6,1-1.4,2-2.3,3s-1.9,1.7-3.1,2.4c-1.2,0.7-2.5,1.2-3.7,1.6c-1.3,0.4-2.7,0.5-4.3,0.5 c-2.7,0-5.1-0.4-7-1.2c-2-0.8-3.6-1.8-4.9-3.1c-1.3-1.3-2.2-2.8-2.9-4.6c-0.6-1.8-1-3.7-1-5.8c0-1.9,0.3-3.7,1-5.4 c0.7-1.7,1.7-3.2,2.9-4.6c1.2-1.3,2.8-2.4,4.7-3.2c1.9-0.8,4-1.2,6.4-1.2c2.6,0,4.7,0.3,6.3,0.9c1.7,0.6,3,1.5,4.1,2.6 c1,1,1.8,2.3,2.3,3.7c0.5,1.4,0.7,2.9,0.7,4.5v1.8h-18.6c0,3.8,0.7,6.6,2.2,8.6c1.5,2,3.8,2.9,6.9,2.9c1.7,0,3.3-0.5,4.7-1.4 s2.6-2.1,3.5-3.6L151.3,235.7z M140.8,225.3c0-1.1-0.1-2.2-0.2-3.4c-0.1-1.2-0.3-2.1-0.6-2.8c-0.3-0.9-0.7-1.5-1.3-2 c-0.5-0.4-1.2-0.7-2.1-0.7c-1.4,0-2.5,0.7-3.4,2.1c-0.8,1.4-1.3,3.7-1.4,6.8L140.8,225.3z"></path> <path class="st18" d="M190.4,242.3h-16.6v-2c0.3,0,0.8-0.1,1.3-0.1c0.5-0.1,0.9-0.1,1.1-0.3c0.4-0.2,0.7-0.5,0.8-0.9 s0.2-1,0.2-1.7v-12.9c0-1.9-0.3-3.3-1-4.2c-0.7-0.9-1.7-1.4-3.1-1.4c-0.7,0-1.4,0.1-2.1,0.3c-0.6,0.2-1.3,0.5-1.9,1 c-0.5,0.4-1,0.7-1.3,1.1c-0.3,0.4-0.6,0.7-0.8,1V237c0,0.6,0.1,1.2,0.3,1.6c0.2,0.4,0.5,0.8,0.9,1c0.3,0.2,0.7,0.3,1.1,0.4 c0.4,0.1,0.9,0.2,1.3,0.3v2H154v-2c0.5,0,0.9-0.1,1.4-0.2s0.9-0.2,1.2-0.3c0.6-0.2,1-0.5,1.2-0.9c0.2-0.4,0.3-1,0.3-1.7v-16 c0-0.6-0.1-1.1-0.4-1.7c-0.3-0.6-0.7-1-1.2-1.4c-0.3-0.2-0.7-0.4-1.3-0.6c-0.5-0.1-1.1-0.2-1.7-0.3v-2l13.1-0.7l0.4,0.4v4h0.1 c0.5-0.5,1.1-1,1.9-1.7c0.7-0.6,1.4-1.2,2-1.6c0.7-0.4,1.6-0.8,2.7-1.1c1.1-0.3,2.3-0.5,3.5-0.5c3,0,5.2,0.9,6.7,2.5 c1.5,1.7,2.2,4,2.2,6.8v13.5c0,0.7,0.1,1.2,0.3,1.6c0.2,0.4,0.6,0.7,1.1,1c0.3,0.1,0.7,0.3,1.1,0.4c0.4,0.1,0.9,0.2,1.5,0.3V242.3 z"></path> <path class="st18" d="M228.3,242.3h-13c-1.6-2.8-3.1-5.2-4.4-7.1c-1.3-2-2.6-3.8-3.7-5.4l-1.6,1.4v6c0,0.7,0.1,1.2,0.3,1.6 c0.2,0.4,0.6,0.7,1.1,0.9c0.3,0.1,0.7,0.3,1.2,0.4c0.4,0.1,0.9,0.2,1.3,0.2v2h-17.1v-2c0.5,0,0.9-0.1,1.4-0.2 c0.5-0.1,0.9-0.2,1.2-0.3c0.6-0.2,1-0.5,1.2-0.9c0.2-0.4,0.3-1,0.3-1.7v-30.7c0-0.6-0.1-1.2-0.4-1.9c-0.3-0.7-0.7-1.1-1.2-1.5 c-0.3-0.2-0.9-0.4-1.6-0.6c-0.7-0.1-1.3-0.2-1.9-0.3v-2l13.7-0.7l0.4,0.4v28.4c1.4-1.2,2.9-2.6,4.6-4.2c1.7-1.6,3.1-2.9,4.1-4 c0.6-0.6,0.9-1.1,1-1.4c0.1-0.3,0.1-0.5,0.1-0.6c0-0.3-0.3-0.6-0.9-0.8c-0.6-0.2-1.5-0.4-2.6-0.6v-2h14v1.9 c-1.8,0.5-3.2,1-4.2,1.4c-1,0.5-2,1.1-3.2,1.8c-0.8,0.5-1.5,1-2.2,1.6c-0.7,0.5-1.5,1.2-2.4,2c1.8,2.6,3.5,5,5,7.2 c1.5,2.2,3.1,4.6,4.8,7.1c0.6,0.9,1.3,1.4,2.1,1.7c0.8,0.3,1.7,0.5,2.5,0.6V242.3z"></path> <path class="st18" d="M246,242.3h-17.4v-2c0.5,0,0.9-0.1,1.4-0.1c0.5-0.1,0.9-0.1,1.2-0.3c0.6-0.2,1-0.5,1.2-1 c0.2-0.4,0.4-1,0.4-1.6v-16c0-0.6-0.1-1.2-0.4-1.7c-0.3-0.5-0.7-0.9-1.1-1.2c-0.3-0.2-0.8-0.4-1.5-0.6c-0.7-0.2-1.3-0.3-1.8-0.4 v-2l13.5-0.7l0.4,0.4v21.9c0,0.6,0.1,1.2,0.4,1.6c0.3,0.5,0.7,0.8,1.2,1c0.4,0.2,0.8,0.3,1.2,0.4c0.4,0.1,0.9,0.2,1.4,0.3V242.3z M242,204.7c0,1.4-0.5,2.6-1.6,3.6c-1.1,1-2.3,1.5-3.8,1.5c-1.5,0-2.8-0.5-3.8-1.5c-1.1-1-1.6-2.2-1.6-3.6c0-1.4,0.5-2.6,1.6-3.6 c1.1-1,2.4-1.5,3.8-1.5s2.8,0.5,3.8,1.5C241.4,202.1,242,203.3,242,204.7z"></path> <path class="st18" d="M284.9,242.3h-16.6v-2c0.3,0,0.8-0.1,1.3-0.1s0.9-0.1,1.1-0.3c0.4-0.2,0.7-0.5,0.8-0.9s0.2-1,0.2-1.7v-12.9 c0-1.9-0.3-3.3-1-4.2c-0.7-0.9-1.7-1.4-3.1-1.4c-0.7,0-1.4,0.1-2.1,0.3c-0.6,0.2-1.3,0.5-1.9,1c-0.5,0.4-1,0.7-1.3,1.1 c-0.3,0.4-0.6,0.7-0.8,1V237c0,0.6,0.1,1.2,0.3,1.6c0.2,0.4,0.5,0.8,0.9,1c0.3,0.2,0.7,0.3,1.1,0.4c0.4,0.1,0.9,0.2,1.3,0.3v2 h-16.8v-2c0.5,0,0.9-0.1,1.4-0.2s0.9-0.2,1.2-0.3c0.6-0.2,1-0.5,1.2-0.9c0.2-0.4,0.3-1,0.3-1.7v-16c0-0.6-0.1-1.1-0.4-1.7 c-0.3-0.6-0.7-1-1.2-1.4c-0.3-0.2-0.7-0.4-1.3-0.6c-0.5-0.1-1.1-0.2-1.7-0.3v-2l13.1-0.7l0.4,0.4v4h0.1c0.5-0.5,1.1-1,1.9-1.7 c0.7-0.6,1.4-1.2,2-1.6c0.7-0.4,1.6-0.8,2.7-1.1c1.1-0.3,2.3-0.5,3.5-0.5c3,0,5.2,0.9,6.7,2.5c1.5,1.7,2.2,4,2.2,6.8v13.5 c0,0.7,0.1,1.2,0.3,1.6c0.2,0.4,0.6,0.7,1.1,1c0.3,0.1,0.7,0.3,1.1,0.4c0.4,0.1,0.9,0.2,1.5,0.3V242.3z"></path> <path class="st18" d="M300.2,243.3c-1.8,0-3.5-0.3-5.2-0.8c-1.7-0.5-3-1.1-4-1.7l-0.8,1.9h-2.1l-0.4-10.3h2 c0.3,0.8,0.7,1.8,1.4,2.8c0.6,1,1.4,2,2.2,2.8c0.9,0.8,1.9,1.5,3,2.1c1.1,0.6,2.3,0.9,3.6,0.9c1.7,0,2.9-0.3,3.7-1 c0.8-0.7,1.2-1.7,1.2-3c0-0.7-0.2-1.3-0.6-1.8c-0.4-0.5-0.9-0.9-1.5-1.2c-0.7-0.4-1.5-0.7-2.4-0.9c-0.9-0.3-1.9-0.6-3.2-0.9 c-1.2-0.4-2.3-0.7-3.2-1.1c-0.9-0.4-1.8-1-2.8-1.8c-0.8-0.7-1.5-1.6-2-2.6c-0.5-1-0.7-2.2-0.7-3.6c0-2.6,1.1-4.7,3.3-6.3 c2.2-1.6,5-2.4,8.6-2.4c1.7,0,3.2,0.2,4.6,0.5c1.4,0.3,2.6,0.7,3.5,1.1l0.6-1.6h2.1l0.4,9.4h-1.9c-0.6-1.9-1.7-3.6-3.3-4.9 c-1.6-1.4-3.2-2.1-5-2.1c-1.4,0-2.5,0.3-3.3,0.9c-0.8,0.6-1.2,1.4-1.2,2.5c0,1.4,0.6,2.4,1.8,3c1.2,0.6,2.8,1.2,5,1.8 c3.3,0.8,5.7,2,7.2,3.5c1.5,1.5,2.3,3.3,2.3,5.6c0,3-1.2,5.3-3.5,7C307.1,242.4,304,243.3,300.2,243.3z"></path> </g> </g> </svg> 