<?xml version="1.0" encoding="UTF-8"?> <!-- Generator: Adobe Illustrator 23.0.2, SVG Export Plug-In . SVG Version: 6.00 Build 0) --> <svg xmlns="http://www.w3.org/2000/svg" xmlns:xlink="http://www.w3.org/1999/xlink" id="Layer_1" x="0px" y="0px" viewBox="0 0 400 245" style="enable-background:new 0 0 400 245;" xml:space="preserve"> <style type="text/css"> .st0{opacity:0;} .st1{fill:#010101;} .st2{fill:#D23B33;} .st3{fill:#221F1F;} .st4{fill:#F1D7B8;} .st5{fill:#486BB3;} .st6{fill:#8A5E3C;} .st7{fill:#DBD9D7;} .st8{fill:#F5E3CD;} .st9{fill:#1D9FD5;} .st10{fill:#FFFFFF;} .st11{fill:#EF3F3C;} .st12{fill:#F2F2F2;} .st13{fill:#A7A9AC;} .st14{fill:#F2B544;} .st15{fill:#F5E675;} .st16{fill:#1B1816;} .st17{fill:#D49E29;} .st18{fill:#FCEE1F;} </style> <g> <g id="path90"> <g class="st0"> <path class="st1" d="M218.3,121l0,0.9c-1.3,0.8-3.3,0.8-4.7,1.5c1.7,0.1,3.5,0.5,5,1.3c0,0.8-0.1,1.5-0.1,2.3 c-2.3,1.6-4.4,3.9-7.1,5.4c-1.3,0.7-5.8,2.5-7.1,2.2c-0.8-0.2-0.8-1.1-1.1-2c-0.7-1.9-2.2-5-2.3-7.9c-0.2-3.7-0.6-9.8,3.4-9.1 c3.3,0.7,6.4,1.8,9.4,3.4C215.1,119.8,216,120.9,218.3,121L218.3,121z"></path> </g> <g> <path class="st2" d="M204.6,135.3c-0.2,0-0.4,0-0.5-0.1c-1-0.2-1.3-1.2-1.5-2c0-0.2-0.1-0.4-0.2-0.5c-0.1-0.4-0.3-1-0.6-1.5 c-0.7-1.9-1.7-4.3-1.7-6.6l0-0.3c-0.1-3.1-0.3-7.2,1.6-8.9c0.7-0.6,1.6-0.8,2.7-0.6c3.4,0.7,6.6,1.9,9.6,3.5 c0.4,0.2,0.7,0.5,1,0.7c1,0.7,1.8,1.2,3.3,1.3l0.7,0.1l-0.1,2l-0.3,0.2c-0.5,0.3-1.1,0.6-1.8,0.7c0.7,0.2,1.4,0.5,2.1,0.8 l0.4,0.2l-0.1,3.1l-0.3,0.2c-0.9,0.6-1.7,1.3-2.6,2.1c-1.4,1.2-2.8,2.4-4.5,3.3C210.9,133.5,206.7,135.3,204.6,135.3z M203.6,116.2c-0.4,0-0.7,0.1-1,0.3c-1.4,1.2-1.2,5.3-1.1,7.7l0,0.3c0.1,2.1,0.9,4.3,1.6,6.1c0.2,0.6,0.4,1.1,0.6,1.6 c0.1,0.2,0.1,0.4,0.2,0.6c0.2,0.6,0.3,0.9,0.4,1c1,0.2,5.2-1.3,6.6-2.1c1.6-0.9,3-2,4.3-3.2c0.8-0.7,1.6-1.4,2.4-2l0.1-1.5 c-1.3-0.6-2.8-1-4.3-1l-0.3-1.3c0.7-0.4,1.5-0.5,2.3-0.7c0.6-0.1,1.2-0.3,1.7-0.5c-1.4-0.3-2.3-0.9-3.1-1.4 c-0.3-0.2-0.6-0.4-0.9-0.6c-2.9-1.5-6-2.7-9.2-3.3C203.9,116.2,203.7,116.2,203.6,116.2z"></path> </g> </g> <g> <path class="st2" d="M203.9,14.7c-2.5-1-5.3-1-7.8,0l-51.8,25c-2.4,1.3-4.1,3.5-4.8,6.1l-12.8,56.1c-0.5,2.6,0.2,5.4,1.7,7.6 l35.9,44.9c1.8,2,4.3,3.2,7,3.4h57.6c2.7-0.2,5.2-1.4,7-3.4l35.9-45c1.5-2.2,2.2-4.9,1.7-7.6l-12.8-56.1c-0.7-2.6-2.5-4.8-4.8-6.1 L203.9,14.7z"></path> <path class="st3" d="M228.8,159.8l-57.7,0c-3.2-0.2-6.2-1.7-8.3-4.1l-0.1-0.1l-36-45c-1.9-2.6-2.6-5.9-2-9.1l0-0.1l12.8-56.2 c0.9-3.1,2.9-5.7,5.8-7.3l0.1-0.1l51.9-25c3-1.2,6.3-1.2,9.3,0l0.1,0l52,25c2.8,1.6,4.9,4.1,5.8,7.3l0,0.1l12.8,56.2 c0.5,3.2-0.2,6.4-2,9.1l-0.1,0.1l-35.9,45.1C235.2,158.1,232.1,159.6,228.8,159.8L228.8,159.8z M171.3,155.8h57.4 c2.1-0.1,4.1-1.1,5.5-2.7l35.8-44.9c1.2-1.8,1.7-3.9,1.3-6l-12.8-55.9c-0.6-2.1-2-3.8-3.8-4.8l-51.7-24.9c-2-0.8-4.2-0.8-6.1,0 l-51.7,24.9c-1.9,1.1-3.2,2.8-3.8,4.8l-12.8,56c-0.4,2.1,0.1,4.2,1.3,6l35.8,44.9C167.2,154.7,169.2,155.6,171.3,155.8z"></path> </g> <g id="path3565"> <path class="st4" d="M232.1,30.1l3.1,4.9l3.8,6.9l0.9,17.1L237,73.6l-5.2,13l-5,6.9l-3.6,3.8l-9.5,1.4l-12.8,1.4l-8.3,0.2 l-8.1-0.2l-6.2-1.9l-5.4-5.9l-4.3-12.1l-0.9-2.6l-5.7-1.9l-3.3-5.4l-2.4-7.8l2.6-6.9l6.2-2.1l5,2.4l2.4,5.2l2.8-0.5l0.9-1.2 l-0.9-5.4l-0.2-6.9l0.6-3.9l0.9-0.3l2.8-0.9c5.2-1.7,7.4-2.5,10.4-3.7l0.6-0.2c1.7-0.7,2.7-1.2,5.9-2.7c7.5-3.6,11.1-4.8,15.1-4.8 c0.3,0,0.8,0,1.7,0.1l3,0.1c1.9,0.1,3.5,0.2,5.1,0.2c2.6,0.1,5.3,0,7.9-0.2C230.1,30.5,231.1,30.3,232.1,30.1L232.1,30.1z"></path> </g> <g id="path3567"> <g class="st0"> <path class="st1" d="M232.1,30.1l3.1,4.9l3.8,6.9l0.9,17.1L237,73.6l-5.2,13l-5,6.9l-3.6,3.8l-9.5,1.4l-12.8,1.4l-8.3,0.2 l-8.1-0.2l-6.2-1.9l-5.4-5.9l-4.3-12.1l-0.9-2.6l-5.7-1.9l-3.3-5.4l-2.4-7.8l2.6-6.9l6.2-2.1l5,2.4l2.4,5.2l2.8-0.5l0.9-1.2 l-0.9-5.4l-0.2-6.9l0.6-3.9l0.9-0.3l2.8-0.9c5.2-1.7,7.4-2.5,10.4-3.7l0.6-0.2c1.7-0.7,2.7-1.2,5.9-2.7 c7.5-3.6,11.1-4.8,15.1-4.8c0.3,0,0.8,0,1.7,0.1l3,0.1c1.9,0.1,3.5,0.2,5.1,0.2c2.6,0.1,5.3,0,7.9-0.2 C230.1,30.5,231.1,30.3,232.1,30.1z"></path> </g> <g> <path class="st1" d="M192.7,100.7l-8.2-0.2l-6.3-1.9l-5.6-6l-5.2-14.6l-5.6-1.9l-3.4-5.6l-2.4-7.9l2.7-7.1l6.5-2.2l5.2,2.5 l2.3,5.1l2.4-0.4l0.8-1l-0.9-5.3l-0.2-7l0.6-4.1l3.9-1.3c5.2-1.7,7.5-2.5,10.4-3.7l0.6-0.2c1.7-0.7,2.8-1.2,5.9-2.7 c7.9-3.8,11.3-4.9,15.3-4.9c0.3,0,0.8,0,1.7,0.1l3,0.1c2,0.1,3.6,0.2,5.1,0.2c2.6,0.1,5.3,0,7.9-0.2c1-0.1,2-0.3,2.9-0.5l0.3-0.1 l3.2,5.1l3.8,7l1,17.2l-2.9,14.8l-5.3,13.1l-5,6.9l-3.7,3.9l-9.6,1.4l-12.8,1.4L192.7,100.7z M184.7,99.8l8,0.2l8.3-0.2l12.8-1.4 l9.3-1.4l3.5-3.7l4.9-6.8l5.2-13l2.8-14.6l-0.9-16.9l-3.7-6.8l-2.9-4.7c-0.9,0.2-1.8,0.4-2.8,0.5c-2.6,0.2-5.3,0.3-8,0.2 c-1.5,0-3-0.1-5.1-0.2l-3-0.1c-0.9-0.1-1.4-0.1-1.6-0.1c-3.8,0-7.2,1.1-15,4.8c-3.2,1.5-4.2,2-5.9,2.7l-0.6,0.2 c-2.9,1.2-5.2,2-10.4,3.7l-3.5,1.2l-0.5,3.6l0.2,6.8l1,5.6l-1.1,1.4l-3.2,0.5l-2.4-5.3l-4.7-2.3l-5.9,2l-2.5,6.6l2.3,7.6l3.2,5.3 l5.7,1.9l1,2.8l4.2,12l5.3,5.8L184.7,99.8z"></path> </g> </g> <g id="path30"> <path class="st5" d="M214.9,138l-33.9,1.4v5.7l2.8,19.9l-1.4,1.7l-23.7-8.1l-1.7-2.8l-2.4-26.8l-5.4-16.1l-1.2-3.8l19-13l5.9-2.4 l5.2,6.4l4.5,4l5.2,1.7l2.4,0.7l2.8,12.3l2.1,2.6l5.5-1.9l7.9-5.3l4.7-2.5l4.2,24.9L214.9,138"></path> </g> <g id="path3570"> <path class="st6" d="M175.4,42.9l-1,9.1l1.4,5.4l-0.7,2.8l-2.8,0.5l-2.4-5.2l-5-2.4l-6.2,2.1l-0.4-3.1c1.2,0.1,2.5,0,3.6-0.4 c3-0.9,4.9-2.4,7.8-5.3l0.3-0.3l0.3-0.3c0.7-0.7,1.4-1.4,2.1-2C173.5,43.6,174.5,43.2,175.4,42.9L175.4,42.9z"></path> </g> <g id="path3572"> <path class="st7" d="M161,52.1c0,0.6,0,0,0.4,1.6l-2.6,1.7l-0.4-3.1C159.9,52.3,159,52.3,161,52.1z"></path> </g> <g id="path38"> <path class="st8" d="M169,75.7l3.1-3c0.9,0.2,1.6,0.9,1.6,1.8c0.2,1.7,0.9,16.6,11.1,24.6c0.9,0.7-7.6-1.2-7.6-1.2l-7.6-11.8"></path> </g> <g id="path40"> <path class="st8" d="M212.2,68.5c0,0,0.6-7.2,2.5-6.6c1.1,0.3,1.9,1.3,1.9,2.5C216.6,64.4,211.9,67.4,212.2,68.5"></path> </g> <g id="path46"> <path class="st8" d="M171.4,60.5c0,0-9-5.4-10-0.2c-0.9,5.2-3.1,9,1.4,14.5l-3.1-0.9l-2.8-7.3l-0.9-7.1l5.5-5.7l6.2,0.5l3.6,2.8 L171.4,60.5"></path> </g> <g id="path3577"> <path class="st8" d="M176.5,42.6c-0.6,1.5-0.2,0.5-0.9,3v-2.7l0.7-0.3L176.5,42.6z"></path> </g> <g id="path54"> <path class="st9" d="M178.2,100.1l-22.1,9.6c0,0,9.3,36.6,4.3,48.5l-3.3-1.2l-0.2-14l-6.1-26.5l-2.6-7.3l0.5-5.1l24.7-7.4 L178.2,100.1"></path> </g> <g id="path56"> <path class="st9" d="M175.1,129.6l2.8,3.6l0.4,5.8l-1.7,0.2c0,0-2.4-6.1-2.4-7.3c-0.1-0.9-0.4-1.8-0.8-2.5"></path> </g> <g id="path58"> <path class="st9" d="M180.6,140.6l-10.3-0.2l1.4,2.8l8.9,1.1"></path> </g> <g id="path60"> <path class="st5" d="M217.1,138.2l8.8-0.2l2.1,21.8l-9,1.2L217.1,138.2"></path> </g> <g id="path62"> <path class="st5" d="M232.7,137.5c0,0,5.5-13.7,5.5-14.5s6.6-23.1,6.6-23.1l-12.5-8l-2.1-1.9l-5.7,5.7l-2.7,12.1l-8.4,3.7 l3.3,26.2"></path> <path class="st5" d="M216.3,137.9l-3.3-26.4l8.5-3.8l2.7-12l5.9-5.9l2.3,2.1l12.7,8l-0.1,0.2c-2.6,8.9-6.5,22.3-6.6,23 c0,0.7-4.6,12.2-5.5,14.6l-0.5-0.2c2.2-5.4,5.4-13.7,5.4-14.4c0-0.7,5.3-18.8,6.5-22.9l-12.3-7.8l-2-1.8l-5.4,5.4l-2.7,12.1 l-8.4,3.7l3.3,26L216.3,137.9z"></path> </g> <g id="path64"> <path class="st9" d="M225.4,136.6l-8.3,1.7l1.2,6.6c3.1,1.4,8.3-2.4,8.3-2.4"></path> </g> <g id="path66"> <path class="st9" d="M233.7,100l11,1.9l-1.1-4.4l-13.4-5.2l2.3,7.6"></path> </g> <g id="path68"> <path class="st10" d="M188.8,184.9l-4.9-19.9l-2.4-14.7l-0.4-10.9l22.2-1.2h13.8l-1.3,24.9l2.1,19.2l-0.2,3.6l-18,1.4L188.8,184.9 "></path> </g> <g id="path70"> <path class="st7" d="M214,138c0,0-1.2,24.6,2.4,42.2c-5.4,3.1-11.4,5-17.5,5.7l19.9-0.7l2.4-1.4l-2.8-38.9l-0.7-8.3"></path> </g> <g id="path72"> <path class="st10" d="M228.4,157.9l9.2-2.6l17.5-0.9l2.6-8.1l-4.7-14l-5.4-0.7L240,134l-7.3,3.6l-3.9-0.7l-3,1.2"></path> </g> <g id="path74"> <path class="st7" d="M228.2,153.2c0,0,6.2-2.8,7.1-2.6l-2.6-13l3.1-1.2c0,0,2.1,12.3,2.1,13.7c0,0,13.3,0.7,14.5,0.7 c0,0,2.8-5.4,2.1-11.1l2.6,7.6l0.2,4.3l-3.8,5.7l-4.3,0.9l-7.1-0.2l-2.4-3.1l-8.3,1.2l-2.6,0.9"></path> </g> <g id="path80"> <path class="st10" d="M190.9,100.6l-6.6-0.7l-6.2-1.9v2.1l2.4,4.1l10.1,3.5"></path> </g> <g id="path82"> <path class="st7" d="M180.3,101.3c0,0,7.4,3.1,9.7,2.4l-2.7,11.2l-4-6.6l-3.8-5.9L180.3,101.3"></path> </g> <g id="path84"> <path class="st2" d="M228.4,112.7c-3.6-0.1-7.3-0.6-10.8-1.5c0.2-1.3-0.2-2.6,0.1-3.5c0.9-0.6,2.4-0.6,3.7-0.8 c-1.3-0.6-2.7-0.8-4.1-0.5c0-0.9-0.4-1.5-0.7-2.2c2.3-0.8,7.6-6.1,10.6-4.3c1.4,0.8,2,5.6,2.1,7.9 C229.4,109.8,229.2,111.7,228.4,112.7"></path> </g> <g id="path86"> <g class="st0"> <path class="st1" d="M228.7,113c-3.6-0.1-7.3-0.6-10.8-1.5c0.2-1.3-0.2-2.6,0.1-3.5c0.9-0.6,2.4-0.6,3.7-0.8 c-1.3-0.6-2.7-0.8-4.1-0.5c0-0.9-0.4-1.5-0.7-2.2c2.3-0.8,7.6-6.1,10.6-4.3c1.4,0.8,2,5.6,2.1,7.9 C229.7,110.1,229.4,112,228.7,113L228.7,113z"></path> </g> <g> <path class="st2" d="M229,113.7l-0.4,0c-3.7-0.1-7.4-0.6-11-1.5l-0.6-0.2l0.1-0.6c0.1-0.5,0.1-1.1,0-1.6c0-0.7-0.1-1.4,0.1-2 l0.1-0.2l0.1,0l-0.6,0.1l0-0.9c0-0.5-0.2-0.9-0.4-1.3c-0.1-0.2-0.2-0.4-0.3-0.7l-0.2-0.7l0.7-0.2c0.6-0.2,1.6-0.9,2.6-1.6 c2.7-1.8,6.1-4.1,8.6-2.7c2.1,1.2,2.5,7.7,2.5,8.5c0,1.4-0.1,3.9-1.1,5.3L229,113.7z M218.6,111c3.2,0.8,6.4,1.2,9.6,1.3 c0.5-0.9,0.7-2.4,0.7-4.1c-0.2-3.1-0.9-6.8-1.8-7.3c-1.7-1-4.8,1.1-7,2.6c-0.9,0.6-1.6,1.1-2.3,1.4c0.1,0.3,0.3,0.6,0.4,1 c1.3-0.1,2.6,0.1,3.8,0.6l2.3,1.1l-2.5,0.3c-0.3,0-0.6,0.1-0.8,0.1c-0.9,0.1-1.8,0.2-2.3,0.4c-0.1,0.3,0,0.8,0,1.3 C218.6,110.1,218.7,110.5,218.6,111z"></path> </g> </g> <g id="path88"> <path class="st2" d="M209.1,106.2c0,0.3,0,0.6,0,0.9c-1.3,0.8-3.3,0.8-4.7,1.5c1.7,0.1,3.5,0.5,5,1.3c0,0.8-0.1,1.5-0.1,2.3 c-2.3,1.6-4.4,3.9-7.1,5.4c-1.3,0.7-5.8,2.5-7.1,2.2c-0.8-0.2-0.8-1.1-1.1-2c-0.7-1.9-2.2-5-2.3-7.9c-0.2-3.7-0.5-9.8,3.4-9.1 c3.3,0.7,6.4,1.8,9.4,3.4C206,104.9,206.8,105.9,209.1,106.2"></path> </g> <g id="path92"> <path class="st2" d="M211.4,110.5c-0.4-2-0.8-2.6-0.6-4.3C216.2,102.7,217.2,112.3,211.4,110.5"></path> </g> <g id="path94"> <g class="st0"> <path class="st1" d="M211.7,110.8c-0.4-2-0.8-2.6-0.6-4.3C216.4,103,217.4,112.6,211.7,110.8z"></path> </g> <g> <path class="st2" d="M213,111.8c-0.5,0-1-0.1-1.5-0.2l-0.4-0.1L211,111c-0.1-0.6-0.2-1.1-0.3-1.5c-0.2-0.9-0.4-1.7-0.3-3l0-0.3 l0.3-0.2c2.5-1.7,4-0.7,4.5-0.2c1.1,1.1,1.4,3.1,0.6,4.5C215.2,111.2,214.2,111.8,213,111.8z M212.3,110.3 c0.8,0.2,1.7,0.1,2.3-0.7c0.5-0.8,0.3-2.1-0.3-2.7c-0.7-0.7-1.8-0.3-2.5,0.1c0,0.9,0.1,1.4,0.3,2.2 C212.1,109.4,212.2,109.8,212.3,110.3z"></path> </g> </g> <g id="path96"> <path class="st11" d="M219.1,112.2c0,0-1.7-2.4-0.5-3.1c1.2-0.7,2.4,0,3.1-1.2c0.7-1.2,0-1.9,0.2-3.3c0.2-1.4,1.4-1.7,2.6-1.9 c1.2-0.2,4.5-0.7,5,0.5l-1.4-4.3l-2.8-0.9l-9,5.2l-0.5,2.6v5.2"></path> </g> <g id="path98"> <path class="st11" d="M194.3,120c-0.3-3.7-0.6-7.4-0.9-11.1c-0.5-5.5,1.3-4.5,6.1-4.5c0.7,0,4.5,0.9,4.8,1.4 c1.3,2.6-2.2,2.1,1.5,4c3.1,1.7,8.5-1,7.3-4.8c-0.7-0.8-3.6-0.3-4.7-0.8l-5.6-2.9c-2.4-1.2-7.8-3-10.3-1.3 c-6.4,4.3,0.4,15.1,2.7,19.7"></path> </g> <g id="path108"> <path class="st3" d="M169.7,66.1c-1.5-0.8-1.8-4.5-3.5-4.6c-2.4-0.1-2,4.7-2,7.6c-1.7-1.5-2-6.2-0.7-8.6c-1.4-0.7-2,0.8-2.8,1.3 C161.7,54.5,171.3,58.4,169.7,66.1"></path> </g> <g id="path118"> <path class="st3" d="M248.1,137.7c-3.7,0.7-6.3,4.3-9.8,4.1C240.2,139,243.7,137.9,248.1,137.7"></path> </g> <g id="path120"> <path class="st3" d="M249.7,143.5c-3,0.3-6.5,0.8-9.5,0.6C241.6,141.9,247.1,142.6,249.7,143.5"></path> </g> <g id="path122"> <path class="st3" d="M250.7,148.4c-3.4,0.1-7.5,0-10.7-0.3C241.9,146.1,248.6,147.4,250.7,148.4"></path> </g> <g id="path124"> <path class="st7" d="M224.2,162c0.5,4.2,2.2,8.5,1.9,13.1c-1.9,0.6-2.9,1.2-5.4,1.2c-0.2-3.9-0.7-9.9-0.6-13.7 C221.3,162.7,223.1,161.7,224.2,162"></path> </g> <g id="path126"> <path class="st8" d="M218.7,99.8c-1.7,1.1-2.7,3.2-4.3,4.4c-3.6,0.2-9.6-1.3-12.2-3.4c0-0.2,3.3-0.6,3.3-0.8 c3.8,1.7,11.9-1.7,15.8-2.1"></path> </g> <g id="path3614"> <path class="st1" d="M189.9,37.8v0.5l-0.1,4l-0.2,1.7c-0.7,1.4-2.3,4.3-3.4,6l-0.3-1c0.9-1.6,1.6-3.2,3-5.8v-4.9l0.7-0.3 L189.9,37.8z"></path> </g> <g id="path3616"> <path class="st7" d="M232.5,97.7l1.2,6.4l-5.6-5.3l-4.6-2.3l2.4-2.4l4.1-3.4L232.5,97.7z"></path> </g> <g id="path3619"> <path class="st7" d="M161.1,52.3l0.3,1.3l-2.6,1.7l-0.3-2.3c1.2,0,0.6,0.1,1.7-0.3C160.5,52.7,160.8,52.5,161.1,52.3z"></path> </g> <g id="path3622"> <path class="st3" d="M169.7,66.1c-1.5-0.8-1.8-4.5-3.5-4.6c-2.4-0.1-2,4.7-2,7.6c-1.7-1.5-2-6.2-0.7-8.6c-1.4-0.7-2,0.8-2.8,1.3 C161.7,54.5,171.3,58.4,169.7,66.1"></path> </g> <g id="path3632"> <path class="st3" d="M176.7,100c0,0-3.7,1.7-8.7,3.5c-6.5,1.8-9.3,5.1-11.1,3.4c-2.3-1.1-6.6-2.7-6.6-2.7l-1.9,2.5 c3.4,0.3,6.6,1.3,9.5,3c2.6-1.6,7.5-3.7,7.5-3.7l9-3.3l3.9-1.5L176.7,100z"></path> </g> <g id="path3634"> <path class="st3" d="M235.7,97.4l7.3,1.2l0.6,1.4l-6.6-0.9l-4.5-1.2l0.1-1.4L235.7,97.4z"></path> </g> <g id="path3636"> <path class="st3" d="M231.9,93.8l1.8,4.9l1.2,4.8l0.1,2.1l-3.9-1.3l-0.1-1.6l2.7,1.4l-1-5l-2.6-6.2L231.9,93.8z"></path> </g> <g id="path3650"> <path class="st12" d="M178.2,38l-13.5,7.6l-9.7,7.6l-2.4-1.8l-2-5.4l3.8-7.7l30.4-24l10.7-7.1l24.6-4.3l15.5,5.8l8.2,10.1 l-3.1,10.8l-10.5-3l-13.8,0.3l-19.4,3.6L178.2,38z"></path> </g> <g id="path3652"> <path class="st5" d="M154.6,53.2l2.1,3.7l13.8-7.5l20-10.7l14.1-4.4l14.9-2.4l16.2,0.9l5,0.8v-4L226,26.3l-21.6,2.4l-18.5,6 L168,43.5l-11.4,8.5L154.6,53.2z"></path> <path class="st5" d="M156.6,57.3l-2.4-4.2l2.2-1.3l11.3-8.5l18-8.8l18.6-6L226,26l15.1,3.2v4.6l-5.3-0.8l-16.2-0.9l-14.9,2.4 l-14,4.4l-20,10.6L156.6,57.3z M155,53.3l1.9,3.2l13.5-7.4l20-10.7l14.1-4.4l15-2.5l0,0l16.2,0.9l4.7,0.7v-3.5L226,26.6L204.4,29 L186,35l-17.9,8.8l-11.3,8.5L155,53.3z"></path> </g> <g id="path3654"> <path class="st13" d="M178.2,19.3l-16.2,13.8l-7.4,4.4l-4,8.4l1.6,4.3l3.4,3.9l5.1-4.8c0,0-2.5-5-2.8-6.4 c-0.4-1.4,2.5-4.2,4.7-6.5c2.3-2.3,6.6-4.7,9.1-5.9c2.5-1.3,8.1-6.1,8.9-7.5s5.3-8.4,5.3-8.4L178.2,19.3z"></path> </g> <g id="path3661"> <path class="st3" d="M220.6,2c4.7,0.2,12.5,4.3,16,6.4c4.3,2.7,7.4,8,8.1,10.8c0.7,2.8-0.3,5.5-2.6,9.7c-0.8,4.4-1.1,6.4-1.1,6.4 l-67.4,14.1c0,0-4.5,1.8-7.1,3.9c-3.5,0-6.9,2.5-6.9,2.5l-3.7,1.8c0,0-2.7-4.2-4.4-6.6c-3.6-3.1-3.5-3.3-1.7-7.7 c3.4-7.6,3.3-6.4,8-10.2c4.6-3.8,12.7-9.2,14.8-11.2c6.4-5.3,14.6-12.1,19.6-15.2C198.8,2.9,213,2,220.6,2L220.6,2z M217.8,4.5 c-6.3,0.4-9.8,0.9-20.5,3.6c-7.3,4.7-8.7,5.7-13.8,9.9c-3.9,3.1-6.3,4.7-11.6,9.1c-3.8,3.2-12.4,8.4-17.4,13.6 c-1.2,4.8-5.4,6.3-0.4,10.2c2.3,4,2.3,3.6,2.3,3.6c1.3-1,2.7-1.8,4.3-2.3c1.6-0.5,3.2-0.8,4.9-0.9c4.4-3.2,2.1-1.4,7.1-3.9 c5-2.5,66.2-13.6,66.2-13.6c0.8-1.8,1.2-3.8,1.4-5.7c2.1-3.8,2.2-5.5,2-8c-1.4-4.9-3.1-7.2-7.3-9.6C230.1,7.5,225.9,5.9,217.8,4.5 L217.8,4.5z"></path> </g> <g id="path3700"> <path class="st3" d="M210.1,131.3c1.6-0.3,2.5,1.5,2.5,2.4c0.1,1.4-1,2.6-2.4,2.6c0,0,0,0,0,0c-1.4,0-2.6-1.1-2.6-2.5 c0,0,0,0,0-0.1C207.5,132.4,208.4,131.5,210.1,131.3L210.1,131.3z"></path> </g> <g id="path3702"> <path class="st14" d="M208.2,133.7c-0.1-1.2,0.7-1.8,1.8-1.9c1.4,0.1,1.9,0.5,1.8,1.7s-0.2,1.7-1.7,1.8 C208.5,135.5,208.3,134.9,208.2,133.7L208.2,133.7z"></path> </g> <g id="path3704"> <path class="st15" d="M209.6,134c-0.6,0-1.1-0.5-1.1-1c0,0,0,0,0,0c0-0.6,0.4-0.8,1-0.8s0.9,0.3,0.9,0.8 C210.4,133.6,210.2,134,209.6,134z"></path> </g> <g> <path class="st3" d="M259.3,144.2c-0.9-3.6-2.1-7.2-3.6-10.6c-3.6-7.7-14.3-2.9-20.1,0c2.8-7.3,5.2-14.9,7.6-23.2 c1.4-4.1,2.3-8.3,2.8-12.6c-2.2-2.8-3.9-2.8-6.6-3.4c-5.1-2.1-7.9-2.3-8.1-3.8c-0.3-1.5,3.4-6.5,4.2-8.1c1-2.3,1.8-4.6,2.4-7 c3.4-14.3,4.8-29-0.4-43.1c-0.3,0.2-0.7,0.4-1.1,0.5h0.1l-0.5,0.2c-1.1,0.3-0.7,0.3-1.2,0.3c-0.1,0.2-0.2,0.5-0.3,0.7l-0.2,0.2 c0.9,1.5,1.6,3,2.2,4.6c1.7,3.4,1.7,8.4,1.9,13.4c0.6,12.2-2.2,24.8-8.4,33.6c-1.6,2.4-3,4.9-5.3,6.5c-5.6,3.9-14,7.4-21.2,5 c-9.5-3.2-13.9-9.6-19.1-16.8c0.1,4,3,7.3,5.7,10.3c2.4,2.7,5.3,5.7,8.5,6.9c-2.6-0.6-6.6-0.8-7.7,1.5c-6.1-0.4-11.8-1-14.7-5.2 c-2.3-3.3-4.6-8.8-5.6-13.1c-0.3-1.1-0.4-2.1-0.5-3.2c0.3-1.9,3.7-2.7,2.3-5.3c-2.4,0-2.9,2.2-5.2,2.4c-5.7,0.6-9.7-7.6-9.5-12.5 c0.2-4.2,3.7-8.2,8.6-7.6c3.4,0.4,4.5,4.1,5.2,7.4c2,0.1,4.8-0.1,5.7-1.6c-0.1-3.7-1.9-6.8-1.8-10.2c0.1-1.4,0.3-2.8,0.6-4.2 c-0.2,0.1-0.5,0.1-0.7,0.2c-0.4,0.1-0.9,0-1.3-0.1c-0.1,0.5-0.2,1.1-0.2,1.6c-0.2,3.7-0.2,2.9,0.3,5.7c0.5,2.1,2.2,5.4-0.5,5.5 c0.1-6.1-7.4-9.9-13.1-6.3v-0.2l-0.3,0.1c-0.2,0.1-0.5,0.2-0.7,0.2c-0.8,0.1-2,0.2-2.6-0.5c0.1,0.5,0.1,1,0,1.4 c-0.1,0.7-1.1,1.6-1.3,2.1c-2.5,5.9-0.5,13.7,2.4,17.9c1.9,2.9,5,4.8,8.4,5.4c0.2,2.3,0.8,4.5,1.7,6.5c0.7,1.5,4.5,6.8,3.6,8.6 c-0.5,0.9-9.5,3.9-10.8,4.7c-3.6,0.8-2.8,0.2-8.4,0.9c-2.8,0.2-7.5,4.1-6.8,8.5c0.4,3,2.8,7.6,3.7,10.6c1.1,3.3,2.6,6.3,3.5,9.7 c1.9,7.6,2.3,14.7,2.8,22c0.2,2.9-0.1,5.9,0.6,7.5s3.6,2.2,5.7,3.1c6,2.8,12.3,7,20.2,6.1c1.9,6.3,3.6,13,5.9,18.5 c8,2.9,20.7,2.4,29.1,1.4c2.5-0.3,5.2-1.6,5.8-3.8c-0.2-1.4-0.3-2.9-0.3-4.3c2.6-0.5,6.2-1,6.7-3.9c0.8-4.1-2.6-9.9-1.4-14.3 c1.5-0.5,3.1-0.9,2.9-3.3c2.5-1.3,5.6-1.6,8.8-1.5c0.4,0.8,0.9,1.4,1.5,2c4.5,0.9,8.9,1,12.7-0.2 C258.2,157.1,260.2,148.4,259.3,144.2L259.3,144.2z M227.4,99.9c1.4,0.8,2,5.6,2.1,7.9c0.1,1.9-0.2,3.9-1,4.9 c-3.7-0.1-7.3-0.6-10.8-1.5c0.2-1.3-0.2-2.6,0.1-3.5c0.9-0.6,2.4-0.6,3.7-0.8c-1.3-0.6-2.7-0.8-4.1-0.5c0-0.9-0.4-1.5-0.7-2.2 c3-1.3,5.3-4.1,8.7-4.7C227,99.7,226.4,99.5,227.4,99.9L227.4,99.9z M206.3,100.7c3.8,1.7,8.7-0.7,12.6-1 c-1.7,1.1-3.1,2.5-4.7,3.7c-3.6,0.2-5.6-0.2-8.2-2.3C206.1,100.9,206.3,101,206.3,100.7L206.3,100.7z M211.6,110.5 c-0.4-2-0.8-2.6-0.6-4.3c0.6-0.5,1.4-0.7,2.2-0.8C217.3,106,215.5,112.2,211.6,110.5L211.6,110.5z M193.5,100.9 c0.4-0.1,0.7-0.2,1.1-0.3l0.7,0.1c3.3,0.7,6.4,1.8,9.4,3.4c1.5,0.8,2.4,1.8,4.7,2l0,0.9c-1.3,0.8-3.3,0.8-4.7,1.5 c1.7,0.1,3.5,0.5,5,1.3c0,0.8-0.1,1.5-0.1,2.3c-2.3,1.6-4.4,3.9-7.1,5.4c-1.3,0.7-5.8,2.5-7.1,2.2c-0.8-0.2-0.8-1.1-1.1-2 c-0.7-1.9-2.2-5-2.3-7.9C191.8,107.6,191.2,102.2,193.5,100.9L193.5,100.9z M178.9,98.8c2,1.4,8,2,11,2.5c0.2,0.9-0.9,3.7-0.5,6.6 c-0.5,0-1.2,1.5-2.6,4.5c-1.9-3.6-2.3-3.9-4.7-6.4C179.6,102.3,177.5,100.3,178.9,98.8L178.9,98.8z M190,182.3 c-4.4-13.4-6.7-26-8.4-41.1c8.1-1.5,16.3-2.5,24.5-2.4c3.6,0.1,7.2,0.2,10.7,1c0.9,6.2,0.6,12.3,1.3,18.3c0.9,8,0.2,17.2,1.8,24.8 C211.3,185.5,199.7,185.3,190,182.3L190,182.3z M226.3,175c-1.9,0.6-2.9,1.2-5.4,1.2c-0.2-3.9-0.7-9.9-0.6-13.6 c1.2,0,2.4-0.6,3.6-0.7l0.4,0C224.8,166.1,226.5,170.4,226.3,175L226.3,175z M220,159.3c-0.5-6.5-0.9-12.9-0.8-19.3 c1.8-0.6,3.3-0.6,5.1-0.6c1.5,5.5,1.4,12.6,2.2,18.8C224.2,158.6,222.5,158.9,220,159.3L220,159.3z M221.4,135.9 c-1.9,1.1-4.6-0.7-10.6-0.4c-10.2,0.3-24.4,1.5-33.8,2.8c-1.3-2-2.1-4.2-2.5-6.6c-0.5-3-1.8-4.1-2.3-2.9c-0.9,2.1-0.5,0.2,2.3,9.1 c0.6,1.9-1-2.2-2.8-2.8c-0.7,2.2,0.7,2.1,1.7,3.6c1.1,1.4-3.5-0.6-3.5,2.1c2.3,0.4,7.5-0.2,10,0.9c0.6,7.5,1.7,14.7,2.8,22.7 c-9.8-0.5-16.1-5.4-23.3-8.7c-0.4-15.9-3.8-33.4-10.1-46.9c0.4-3.4,1.7-4.7,5.5-4.5c3.2-1.7,13-3.8,18.8-6c0.6-0.2,3.4,3.5,4,3.9 c2,2.5,2.1,3.9,5.1,7.2c0.9,1.2,3.8,5.7,4.4,6c0.9,0.4,1.9-5.2,2.8-4.8c0.3,1.9,0.6,2.4,1.6,5.6c1.1,3.6,1.6,8,6.8,6.1 c5.2-1.9,10.9-6.6,11.5-7.2c0.6-0.7,0.8-1,1.3-1.5c1.9,0.8,3.2-1.1,4.6-0.9c1.7,0.2,4.3,1.7,8.1,2s5.8,0.5,6.8-1 c2.6-4.9,1.4-20-5.2-16.8c0.9-1.3,2.7-2,3.8-3.7c2.8,2.2,4.4,1.5,7.6,3.4c5.4,1.5,6,1.9,6.3,4c0.2,1.2-2,7.8-2.3,9.1 c-1.1,5.8-3.8,13.4-6.3,19.4c-0.9,2.2-1.8,4.9-3,5.4C228.1,135.5,224.2,134.1,221.4,135.9L221.4,135.9z M234.6,154.5 c-1.5,0.3-2.4,1.1-4.2,1.1c-0.4-5.5-1.7-11.4-2.3-16.7c1.5-0.1,0.6,0,2.8-0.1l0.9,0.1C234.2,142.9,234.7,149.6,234.6,154.5 L234.6,154.5z M251,156.3c-2.7,0.7-6.8,0.8-8.6,0c2.2-1.2,5.4-1.2,7.9-2c-3.6-1.5-8.9-0.1-13.2-0.4c-0.5-5.3-0.9-11.1-2.2-15.3 c2.5-2.7,8.6-3.3,12-5.5c0.7-0.4,0.3-0.2,1.2-0.4c1.9-0.1,3.6,0.9,4.5,2.5c1.3,2,2.6,7.9,3.3,11C257,150.9,254.7,155.4,251,156.3 L251,156.3z"></path> </g> <g> <path class="st3" d="M201.7,121.2c1.5,4.7,1.7,9.7,2,14.6c0.1,1.5,2.4,1.5,2.3,0c-0.3-5.1-0.5-10.3-2.1-15.2 C203.5,119.2,201.3,119.8,201.7,121.2L201.7,121.2z"></path> </g> <g id="path3700-2"> <path class="st3" d="M209,121.6c1.6-0.2,2.5,1.5,2.5,2.4c0.1,1.4-1,2.6-2.4,2.6c0,0,0,0-0.1,0c-1.4,0-2.6-1.1-2.6-2.5 c0,0,0,0,0-0.1C206.4,122.7,207.3,121.8,209,121.6z"></path> </g> <g id="path3702-2"> <path class="st14" d="M207.1,124c-0.1-1.2,0.7-1.8,1.8-1.9c1.4,0.1,1.9,0.5,1.8,1.7s-0.2,1.7-1.7,1.8 C207.4,125.9,207.1,125.2,207.1,124L207.1,124z"></path> </g> <g id="path3704-2"> <path class="st15" d="M208.5,124.3c-0.6,0-1.1-0.5-1.1-1c0,0,0,0,0,0c0-0.6,0.4-0.8,1-0.8c0.6,0,0.9,0.3,0.9,0.8 C209.3,123.9,209.1,124.3,208.5,124.3z"></path> </g> <g id="path42"> <path class="st8" d="M232.6,49.2c0,0-3.9,0.8-4.3,4.3c-0.4,3.4,4.3,0.7,5,0.5"></path> </g> <g id="path44"> <path class="st8" d="M204,49.4c0,0-5.2,0.7-5.2,4c0,3.3,5.9,3.1,7.6,1.7"></path> </g> <g id="path102"> <path class="st3" d="M232.3,47.7h0.3c1.5,3,2.7,6.3,4.5,8.9c-1.2,2.8-9.3,5.4-9.2,0.3c1.8-0.8,4.8-0.2,6.3-1.1 C233.4,53.3,232.1,51.2,232.3,47.7"></path> </g> <g id="path3663"> <path class="st16" d="M169.9,48.8c0,0,13.6,1.4,20,1.2c6.4-0.2,20.5,0.7,27.9,0c7.4-0.7,10.4-1.6,15.9-2.8c5.5-1.3,7.4-2.3,10-4.9 c1.5-3,1.5-3.9,0-6.1c-1-1.8-4.1-3.4-4.5-3.6c-3.1-1.2-5.4-2.1-11.6-2.1c-6.2,0-11.9,0.3-17.6,1.4c-14.8,3.5-20.1,5.9-25.6,8.7 C179.2,42.4,169.9,48.8,169.9,48.8L169.9,48.8z"></path> </g> <g id="path3667"> <path class="st7" d="M189,41.5c-1.9,0.6-3.8,1.4-5.5,2.4c-1.8,0.9-3.6,2-5.3,3.2l10.8,0.7c3.1,0.2,4.8,0.4,7.2,0.4 c2.5,0.3,2.2,0.2,2.2,0.2L189,41.5z"></path> </g> <g id="path3669"> <path class="st7" d="M191.5,40.4l9,7.9h3.3l-9.1-9L191.5,40.4z"></path> </g> <g id="path104"> <path class="st3" d="M204.2,47.8c1.4,2.5,1.8,5.2,3.8,7.1c0.9,0.9,2.6,1.9,1.8,4.3c-0.2,0.6-1.7,1.8-2.5,2.1 c-3.1,0.9-10.2,0.2-7.8-3.7c2.5,0.1,6,1.7,7.9-0.2C205.9,55.1,203.3,50.5,204.2,47.8"></path> </g> <g> <path class="st3" d="M225,66c-0.1-0.3-0.4-0.6-0.9-1c-0.2-0.2-0.5-0.4-0.7-0.6c-2.2-2.5-5.2-6-6.3-8.7c0-0.1,0-0.2-0.1-0.3 c-0.1-0.5-0.2-1.1-0.7-1.3c-0.3-0.1-0.6,0-0.8,0.2l-0.1,0.1v0.1c-0.1,4,2.7,7.3,4.9,10l0.4,0.5c0.2,0.2,0.4,0.4,0.6,0.6 c0.9,1,1.5,1.7,0.7,3.2c-0.5,0.2-1.1,0.5-1.6,0.8c-1.8,0.9-4.1,2-6.1,1.7c-0.8-0.1-0.9-0.7-1.1-1.6c-0.1-0.4-0.2-0.8-0.4-1.1 l-0.2-0.4l-0.3,0.3c-1,1.5-0.8,3.4,0.5,4.7l0.1,0.1h0.1c0.5,0,1,0.1,1.4,0.1c4.3,0,7.4-2,10-3.6l0.2-0.1l0-0.2 c0-0.4,0.1-0.8,0.3-1.1C225,67.5,225.1,66.7,225,66L225,66z"></path> </g> <g id="path4067"> <path class="st3" d="M208.1,92.3l4.1-2.3h0l3.1-2c0.1,0,0.1-0.1,0.2-0.1c0.9-0.2,1.9-0.3,2.8-0.2c0.1,0,0.1,0,0.1,0l1.5,0.5 c0.1,0,0.1,0.1,0.2,0.1l3.6,3c0.1,0.1,0.2,0.1,0.3,0.1l0.8,0.1c0.3,0,0.6-0.2,0.6-0.5l0.2-2.6c0-0.1,0-0.2,0.1-0.2l2-3.4 c0.1-0.3,0-0.6-0.2-0.8c-0.1,0-0.1,0-0.2-0.1l-2.9-0.3h-0.1l-4.6,0.5h0l-5.2-0.1h0c-4.6,0.4-9.2,0.5-13.8,0.4 c-1.8,0-3.6,0.2-5.4,0.4c-0.1,0-0.2,0.1-0.3,0.1l-0.4,0.4c-0.2,0.2-0.2,0.5-0.1,0.8l0.9,1.1c0,0,0.1,0.1,0.1,0.1 c0.6,1.3,1.2,2.6,2,3.9l0,0.1l1,2.6c0.1,0.1,0.2,0.3,0.3,0.3l2.4,0.9c0.1,0,0.2,0,0.4,0C203.8,94.6,206,93.6,208.1,92.3 L208.1,92.3z"></path> </g> <g id="_Group_"> <g> <path class="st3" d="M210.2,86.9c0.6,1,0.4,1.6-0.4,2.4c0,0-22.2,7.6-28,11.3c-0.4,0.2-0.8,0.5-1.2,0.8v0.1 c-0.4,0.9-0.4,2.1-0.7,3.1c-0.5,1.9-1.3,4.3-3.1,5.2c-3.8,2-9.2-3.6-11.4-6.1c-0.5-0.6-1-1.3-1.4-2l1.4-0.4 c0.1,0.2,0.2,0.3,0.3,0.5c1.9,2.7,4.5,4.9,7.5,6.3c1.7,0.7,2.7,0.6,3.8-1.1c0.6-1.1,1.1-2.3,1.3-3.5c0.3-1.3,0.5-2.4,1.5-3.3 c1.6-1.4,3.3-2.5,5.1-3.5c4.4-2.6,22-8.4,23.6-8.6c0.3,0,0.3,0.1,0-0.5c-0.5-0.5-1.5-0.3-2.7-0.1l-1,0.3 c-0.8,0.2-1.7,0.5-2.5,0.8c-1.7,0.5-12.3,3.7-13.9,4.3c-1.8,0.6-3.6,1.3-5.3,2.1c-0.9,0.4-2,1-3,1.3l-0.5-1.3 c1.2-0.4,2.5-1.2,3.5-1.6c1.6-0.7,3.1-1.6,4.7-2.2c3.1-1.1,15.3-4.9,18.5-5.5C208,85.2,209.4,85.4,210.2,86.9L210.2,86.9z"></path> </g> <g> <path class="st17" d="M208.6,87.6c0.3,0.6,0.3,0.5,0,0.5c-1.6,0.1-19.1,6-23.6,8.6c-1.8,1-3.5,2.2-5.1,3.5c-1,0.9-1.1,2-1.5,3.3 c-0.2,1.2-0.7,2.4-1.3,3.5c-1.1,1.7-2.1,1.8-3.8,1.1c-3-1.4-5.6-3.6-7.5-6.3c-0.1-0.2-0.2-0.3-0.3-0.5c-0.8-1.5-1.2-3.2-1-4.9 c0.2-2.4,1.6-3.7,3.6-4.7c1-0.5,2.1-0.9,3.3-1.2c4.4-1,5.9,2.1,6.9,5.7c0.1,0.5,0.5,0.4,1,0.3c0.3-0.1,0.7-0.1,1-0.3 c1-0.3,2.1-0.9,3-1.3c1.8-0.8,3.5-1.5,5.3-2.1c1.6-0.6,12.3-3.8,13.9-4.3c0.8-0.3,1.6-0.6,2.5-0.8l1-0.3 C207.1,87.2,208.1,87.1,208.6,87.6L208.6,87.6z"></path> </g> <g> <path class="st3" d="M180.8,101.7L180.8,101.7C180.8,101.8,180.6,101.9,180.8,101.7z M179.8,94.9l0.5,1.3c-0.3,0.1-0.7,0.2-1,0.3 c-0.4,0.1-0.9,0.2-1-0.3c-0.9-3.6-2.5-6.7-6.9-5.7c-1.1,0.3-2.2,0.7-3.3,1.2c-2,1-3.4,2.2-3.6,4.7c-0.1,1.7,0.2,3.4,1,4.9 l-1.4,0.4c-1.1-1.8-1.9-3.9-1.5-6.1c0.4-2.7,2.3-4,4.6-5.1c2.2-1.1,5-2.2,7.5-1.6c2.8,0.7,4.4,3.2,5.1,5.8 C179.9,94.8,179.7,95,179.8,94.9z"></path> </g> </g> <g> <path class="st3" d="M165.9,99.3c1.8,1.1,4.7,0.2,6.5-0.4c1-0.4,0.6-2-0.5-1.6c-1,0.4-2,0.7-3.1,0.8c-0.6,0.1-1.5,0.2-2.1-0.2 c-0.4-0.2-0.9-0.1-1.2,0.3C165.4,98.6,165.5,99.1,165.9,99.3z M170.3,92.8c0.8-0.2,1.8-0.7,2.7-0.6c0.4,0,0.8,0.2,1.1,0.4 c0.3,0.3,0.4,0.8,0.4,1.2c-0.1,0.5-0.9,0.7-1.4,0.9c-1.9,0.8-3.8,1.5-5.8,1.2c-0.3,0-0.8,0.3-1,0.1c-0.2-0.2-0.1-0.8,0-1.1 C168.1,93.5,168.8,93.3,170.3,92.8L170.3,92.8z"></path> </g> <g> <path class="st3" d="M170.5,93.4c0.8-0.2,1.9-0.8,2.7-0.5c1.1,0.4,0.3,0.8-0.3,1.1c-1.4,0.8-3.1,1.2-4.7,1.2 c-0.5-0.1-0.9-0.1-1.4,0c0,0,0.8-0.5,0.9-0.6C168.6,94.1,169.5,93.7,170.5,93.4c0.3-0.1,0.5-0.5,0.4-0.9c-0.1-0.3-0.4-0.5-0.7-0.4 c-1.4,0.4-4.4,1.3-4.6,3.1c-0.1,0.6,0.1,1.1,0.7,1.3c0.5,0,1.1,0,1.6-0.1c0.7,0,1.5-0.1,2.2-0.2c1.4-0.3,2.7-0.8,3.9-1.4 c0.7-0.2,1.1-0.9,1-1.6c-0.2-2.6-3.4-1.7-4.9-1.2C169.4,92.5,169.7,93.7,170.5,93.4L170.5,93.4z M230.3,17.6 c-0.5-1.7-0.4-1.7-0.9-3.4s-0.8-1.6-1.3-3.3c-0.2-0.7-0.6-1.3-1.3-1.6c-1.7-0.6-1.6-0.7-3.3-1.4l-3.3-1.3 c-0.4-0.1-0.8-0.2-1.2-0.1c-0.3,0-0.7,0.1-1,0.2c-1.6,0.9-1.5,1.1-3,2c-1.5,0.9-1.6,0.8-3.2,1.7c-0.6,0.4-1,1.1-1.1,1.8 c-0.3,1.8-0.2,1.8-0.4,3.5c-0.3,1.8-0.3,1.7-0.6,3.5c-0.1,0.6,0.1,1.3,0.5,1.7c0.1,0.1-0.1,0.3,0,0.3c1.2,1.3,1.3,1.3,2.5,2.6 c1.2,1.3,1.4,1.1,2.6,2.4c0.4,0.5,1,0.9,1.6,1c0.1,0,0.1-0.3,0.2-0.3c1.8-0.1,1.8-0.1,3.6-0.2c1.8-0.1,1.8,0.1,3.6,0 c0.8-0.1,1.4-0.5,1.9-1.1c1-1.5,1-1.5,2-3c1-1.5,0.8-1.6,1.8-3.1C230.3,19,230.5,18.3,230.3,17.6L230.3,17.6z M226,21.3 c-1,1.5-1.1,1.4-2.1,2.8c-1.8,0.1-1.8,0.2-3.5,0.3c-1.8,0.1-1.8,0.1-3.6,0.3c0,0,0.1,0,0.1-0.1c-1.2-1.3-1.4-1.1-2.6-2.5 c-1.2-1.3-1.1-1.4-2.3-2.7c0,0-0.1,0.1-0.1,0c0.3-1.8,0.2-1.8,0.5-3.5c0.3-1.8,0.3-1.7,0.6-3.5v-0.1c1.6-0.9,1.7-0.7,3.2-1.6 s1.5-1,3-1.8c1.4,1.1,1.7,0.7,3.4,1.3c1.7,0.6,1.7,0.6,3.4,1.2c0,0,0.2-0.1,0.2-0.1c0.5,1.7,0.4,1.7,0.9,3.4 c0.5,1.7,0.4,1.7,0.9,3.4c0,0,0.2,0.1,0.2,0.1C227.2,19.9,227,19.8,226,21.3z"></path> </g> <g> <path class="st5" d="M219.1,8c-0.2,0-0.3,0.1-0.4,0.2l-6,3.5c-0.3,0.2-0.5,0.5-0.6,0.9l-1,6.8c-0.1,0.3,0,0.6,0.2,0.9 c0,0,0,0.1,0.1,0.1l4.7,5c0.3,0.3,0.6,0.4,1,0.4l6.9-0.5c0.4,0,0.7-0.2,0.9-0.5l3.9-5.7c0.2-0.3,0.3-0.7,0.2-1l-2.1-6.6 c-0.1-0.3-0.4-0.6-0.7-0.8l-6.5-2.5C219.5,8,219.3,8,219.1,8L219.1,8z"></path> </g> <g id="path3059"> <path class="st10" d="M219.3,10.1c-0.2,0-0.4,0.2-0.4,0.5l0,0v0.1c0,0.1,0,0.2,0.1,0.4c0.1,0.2,0.1,0.5,0.1,0.7 c0,0.1-0.1,0.2-0.1,0.2v0.2c-1.2,0.2-2.3,0.8-3.1,1.8l-0.1-0.1c-0.1,0-0.2,0-0.2,0c-0.2-0.1-0.4-0.3-0.6-0.4 c-0.1-0.1-0.2-0.2-0.3-0.3l-0.1-0.1c-0.1-0.1-0.2-0.1-0.3-0.1c-0.1,0-0.2,0.1-0.3,0.2c-0.1,0.2-0.1,0.4,0.1,0.6l0,0l0.1,0.1 c0.1,0.1,0.2,0.1,0.3,0.2c0.2,0.1,0.4,0.2,0.6,0.4c0,0.1,0.1,0.1,0.1,0.2l0.1,0.1c-0.6,1.1-0.8,2.3-0.5,3.5l-0.2,0.1 c0,0.1-0.1,0.1-0.1,0.2c-0.2,0.1-0.4,0.1-0.7,0.2c-0.1,0-0.2,0-0.4,0.1h-0.1l0,0c-0.2,0.1-0.3,0.3-0.3,0.5 c0.1,0.2,0.3,0.3,0.5,0.2l0,0l0.1,0c0.1,0,0.2-0.1,0.3-0.2c0.2-0.1,0.4-0.2,0.7-0.3c0.1,0,0.2,0,0.2,0.1l0.2,0 c0.5,1.1,1.3,2.1,2.4,2.6l-0.1,0.2c0,0.1,0.1,0.1,0.1,0.2c-0.1,0.2-0.2,0.4-0.3,0.6c-0.1,0.1-0.1,0.2-0.2,0.3c0,0,0,0.1,0,0.1 c-0.1,0.2,0,0.4,0.2,0.5c0.2,0.1,0.4,0,0.5-0.2c0,0,0,0,0,0l0,0c0,0,0-0.1,0-0.1c0-0.1,0.1-0.2,0.1-0.4c0-0.2,0.1-0.5,0.2-0.7 c0,0,0.1-0.1,0.2-0.1l0.1-0.2c0.9,0.3,2,0.3,2.9,0c0.2-0.1,0.4-0.2,0.6-0.3l0.1,0.1c0.1,0,0.2,0,0.2,0.1c0.1,0.2,0.2,0.4,0.3,0.6 c0.1,0.1,0.1,0.2,0.1,0.3c0,0,0,0.1,0.1,0.1c0.1,0.2,0.3,0.3,0.5,0.2c0.2-0.1,0.3-0.3,0.2-0.5c0,0,0,0,0-0.1l-0.1-0.1 c-0.1-0.1-0.1-0.2-0.2-0.3c-0.1-0.2-0.3-0.4-0.4-0.6c0-0.1,0-0.2,0-0.2c0,0-0.1-0.1-0.1-0.1c1-0.7,1.7-1.8,2-3h0.2 c0.1-0.1,0.1-0.1,0.2-0.1c0.2,0,0.5,0.1,0.7,0.1c0.1,0,0.2,0.1,0.4,0.1h0.1c0.2,0,0.4-0.1,0.5-0.3c0,0,0,0,0,0 c0-0.2-0.1-0.4-0.4-0.4h-0.1c-0.1,0-0.3,0-0.4,0c-0.2,0-0.5,0-0.7-0.1c-0.1,0-0.1-0.1-0.2-0.2l-0.2,0c0.1-1.2-0.3-2.4-1.1-3.4 l0.1-0.1c0-0.1,0-0.2,0.1-0.2c0.2-0.2,0.4-0.3,0.6-0.4c0.1-0.1,0.2-0.1,0.3-0.2l0.1-0.1c0.2-0.1,0.2-0.4,0-0.5s-0.4-0.2-0.5,0 c0,0,0,0,0,0l-0.1,0.1c-0.1,0.1-0.2,0.2-0.2,0.3c-0.1,0.2-0.3,0.4-0.5,0.5c-0.1,0-0.2,0.1-0.2,0l-0.1,0.1 c-0.9-0.8-2.1-1.3-3.3-1.3v-0.2c-0.1,0-0.1-0.1-0.1-0.2c0-0.2,0-0.5,0-0.7v-0.4c0,0,0-0.1,0-0.1C219.7,10.2,219.5,10.1,219.3,10.1 C219.3,10.1,219.3,10.1,219.3,10.1L219.3,10.1z M219,13.1l0,2l0,0c0,0.2-0.1,0.3-0.3,0.4c-0.1,0-0.1,0-0.2-0.1l0,0l-1.7-1 c0.5-0.6,1.1-1,1.8-1.2C218.8,13.2,218.9,13.1,219,13.1L219,13.1z M220,13c0.9,0,1.7,0.4,2.4,0.9l-1.6,1.3l0,0 c-0.1,0.1-0.3,0.1-0.5,0c0-0.1-0.1-0.1-0.1-0.2l0,0L220,13z M216.3,15.2l1.6,1.2l0,0c0.1,0.1,0.2,0.3,0.1,0.5 c0,0.1-0.1,0.1-0.2,0.1l0,0l-1.9,0.7C215.7,16.9,215.9,16,216.3,15.2L216.3,15.2z M223.1,14.7c0.3,0.4,0.4,0.8,0.6,1.2 c0.1,0.4,0.2,0.8,0.2,1.3l-2-0.4l0,0c-0.2,0-0.3-0.2-0.3-0.4c0-0.1,0-0.1,0.1-0.2l0,0L223.1,14.7L223.1,14.7z M219.5,16.4l0.6-0.1 l0.4,0.4l-0.1,0.6l-0.5,0.3l-0.6-0.2l-0.2-0.6L219.5,16.4z M221.6,17.9L221.6,17.9l2.1,0.2c-0.2,0.9-0.7,1.6-1.5,2.1l-0.9-1.8l0,0 c-0.1-0.2,0-0.4,0.1-0.4C221.5,17.9,221.5,17.9,221.6,17.9L221.6,17.9z M218.2,18.2c0.2,0,0.3,0.1,0.3,0.2c0,0.1,0,0.1,0,0.2l0,0 l-0.6,1.9c-0.8-0.4-1.4-1.1-1.8-1.9L218.2,18.2L218.2,18.2L218.2,18.2z M220,18.9c0.1,0,0.1,0,0.2,0c0.1,0,0.1,0.1,0.2,0.1l0,0 l1.1,1.7l-0.4,0.1c-0.7,0.2-1.5,0.2-2.2,0.1l0.8-1.8l0,0C219.7,18.9,219.9,18.9,220,18.9L220,18.9z"></path> <path class="st10" d="M217.4,23.6c-0.1,0-0.1,0-0.2,0c-0.2-0.1-0.4-0.4-0.3-0.6c0,0,0-0.1,0-0.1l0,0c0.1-0.1,0.1-0.2,0.2-0.3 c0.1-0.2,0.2-0.4,0.3-0.6c0-0.1,0-0.1,0-0.2l0,0l0-0.1c-1.1-0.5-1.9-1.4-2.4-2.6l-0.1,0l0,0c-0.1,0-0.1,0-0.2,0 c-0.2,0.1-0.4,0.1-0.6,0.2c-0.1,0-0.1,0-0.1,0.1c-0.1,0-0.1,0.1-0.2,0.1l-0.1,0c-0.2,0.1-0.5,0-0.6-0.3c-0.1-0.3,0.1-0.5,0.3-0.6 l0,0h0.1c0.1,0,0.2,0,0.4-0.1c0.2,0,0.4-0.1,0.7-0.2c0,0,0.1-0.1,0.1-0.1l0,0l0.1-0.1c-0.3-1.2-0.1-2.4,0.5-3.5l-0.1-0.1l0,0 c0-0.1,0-0.1-0.1-0.2c-0.2-0.1-0.4-0.2-0.6-0.3c-0.1,0-0.2-0.1-0.3-0.2l-0.1-0.1c-0.2-0.1-0.3-0.4-0.2-0.7 c0.1-0.1,0.2-0.2,0.4-0.2c0.1,0,0.2,0,0.3,0.1l0.1,0.1c0.1,0.1,0.2,0.2,0.3,0.3c0.2,0.2,0.4,0.3,0.6,0.4c0,0,0.1,0,0.2,0l0,0 l0.1,0.1c0.8-0.9,1.8-1.6,3-1.8v-0.1l0,0c0,0,0.1-0.1,0.1-0.2c0-0.2,0-0.5-0.1-0.7c0-0.1-0.1-0.2-0.1-0.4l0-0.1 c0-0.2,0.1-0.4,0.3-0.5l0-0.1h0.1c0,0,0,0,0,0c0.3,0,0.5,0.2,0.5,0.5c0,0,0,0.1,0,0.1l0,0.4c0,0.2,0,0.5,0,0.7 c0,0,0.1,0.1,0.1,0.1l0,0v0.1c1.2,0,2.3,0.5,3.3,1.3l0.1-0.1l0,0c0.1,0,0.1,0,0.2,0c0.2-0.1,0.3-0.3,0.5-0.5 c0.1-0.1,0.2-0.2,0.2-0.3l0.1-0.1c0,0,0,0,0,0c0.2-0.2,0.5-0.1,0.6,0.1c0.2,0.2,0.1,0.5-0.1,0.6l-0.1,0.1 c-0.1,0.1-0.2,0.2-0.3,0.2c-0.2,0.1-0.4,0.3-0.6,0.4c0,0,0,0.1,0,0.2l0,0l-0.1,0.1c0.7,1,1.1,2.1,1.1,3.4l0.1,0l0,0 c0,0.1,0.1,0.1,0.1,0.1c0.2,0,0.4,0.1,0.7,0.1c0.1,0,0.3,0,0.4,0l0.1,0c0.3,0,0.5,0.3,0.4,0.5l0,0c0,0.1-0.1,0.2-0.2,0.3 c-0.1,0.1-0.2,0.1-0.4,0.1l-0.1,0c-0.1,0-0.2,0-0.2-0.1c0,0-0.1,0-0.1,0c-0.2-0.1-0.5-0.1-0.7-0.1c0,0-0.1,0-0.2,0.1l0,0h-0.1 c-0.3,1.2-1,2.2-2,2.9c0,0,0,0.1,0,0.1l0,0l0,0c0,0.1,0,0.1,0,0.2c0.1,0.2,0.2,0.4,0.4,0.5c0.1,0.1,0.2,0.2,0.2,0.3l0.1,0.1 c0,0,0,0,0,0.1c0.1,0.1,0.1,0.2,0,0.4c0,0.1-0.1,0.2-0.2,0.3c-0.1,0.1-0.2,0.1-0.4,0c-0.1,0-0.2-0.1-0.3-0.2c0,0-0.1-0.1-0.1-0.1 c0-0.1-0.1-0.2-0.1-0.2c0,0,0-0.1-0.1-0.1c-0.1-0.2-0.2-0.4-0.3-0.6c0,0-0.1-0.1-0.2-0.1l0,0l-0.1-0.1c-0.2,0.1-0.4,0.2-0.6,0.2 c-0.9,0.3-1.9,0.3-2.9,0l-0.1,0.1l0,0c0,0-0.1,0-0.1,0.1c-0.1,0.2-0.2,0.4-0.2,0.7c0,0.1,0,0.2-0.1,0.4c0,0,0,0,0,0.1c0,0,0,0,0,0 c0,0,0,0,0,0c0,0.1-0.1,0.2-0.2,0.3C217.5,23.6,217.5,23.6,217.4,23.6z M217.2,22.9c0,0,0,0.1-0.1,0.1c-0.1,0.2,0,0.4,0.2,0.4 c0.1,0,0.2,0,0.2,0c0.1,0,0.1-0.1,0.2-0.2c0,0,0-0.1,0-0.1c0,0,0,0,0,0c0-0.1,0.1-0.2,0.1-0.4c0-0.3,0.1-0.5,0.3-0.7l0,0 c0,0,0.1-0.1,0.2-0.1l0.1-0.2l0.1,0c0.9,0.3,1.9,0.3,2.9,0c0.2-0.1,0.4-0.2,0.6-0.2l0.1,0l0.1,0.2c0.1,0,0.2,0.1,0.2,0.1 c0.1,0.2,0.2,0.4,0.3,0.6c0,0,0,0.1,0.1,0.1c0,0.1,0,0.1,0.1,0.2c0,0,0,0.1,0.1,0.1c0,0.1,0.1,0.1,0.2,0.2c0.1,0,0.2,0,0.2,0 c0.1,0,0.1-0.1,0.2-0.2c0-0.1,0-0.2,0-0.2c0,0,0,0,0-0.1l-0.1-0.1c-0.1-0.1-0.1-0.2-0.2-0.3c-0.2-0.2-0.3-0.4-0.4-0.6 c0-0.1,0-0.2,0-0.3c0,0,0-0.1-0.1-0.1l0-0.1l0.1,0c1-0.7,1.7-1.7,2-2.9l0-0.1h0.2c0.1-0.1,0.1-0.1,0.2-0.1c0.2,0,0.5,0.1,0.7,0.2 c0,0,0.1,0,0.1,0c0.1,0,0.1,0,0.2,0.1l0.1,0c0.1,0,0.2,0,0.3,0c0.1,0,0.1-0.1,0.1-0.2c0-0.2-0.1-0.3-0.3-0.4l-0.1,0 c-0.1,0-0.2,0-0.4,0c-0.2,0-0.5,0-0.7-0.1c-0.1,0-0.2-0.1-0.2-0.2l-0.2,0l0-0.1c0.1-1.2-0.3-2.4-1.1-3.4l0,0l0.2-0.2 c0-0.1,0-0.2,0.1-0.2c0.2-0.2,0.4-0.3,0.6-0.5c0.1-0.1,0.2-0.1,0.3-0.2l0.1-0.1c0.1-0.1,0.2-0.3,0-0.4c-0.1-0.1-0.3-0.1-0.4,0 c0,0,0,0,0,0l-0.1,0.1c-0.1,0.1-0.2,0.2-0.2,0.3c-0.1,0.2-0.3,0.4-0.5,0.5c-0.1,0-0.2,0.1-0.3,0.1l-0.2,0.1l0,0 c-0.9-0.8-2.1-1.3-3.3-1.3l-0.1,0v-0.2c-0.1-0.1-0.1-0.1-0.1-0.2c0-0.2,0-0.5,0-0.7l0-0.4c0,0,0-0.1,0-0.1c0-0.1-0.1-0.3-0.2-0.3 l-0.1,0c-0.2,0-0.3,0.2-0.3,0.4l0,0.1c0,0.1,0,0.2,0.1,0.3c0.1,0.2,0.1,0.5,0.1,0.7l0,0l0,0c0,0.1-0.1,0.2-0.1,0.2v0.2l-0.1,0 c-1.2,0.2-2.3,0.8-3,1.8l0,0l-0.2-0.1c-0.1,0-0.2,0-0.3,0c-0.2-0.1-0.4-0.3-0.6-0.4c-0.1-0.1-0.2-0.2-0.3-0.2l-0.1-0.1 c-0.1,0-0.2-0.1-0.2-0.1c-0.1,0-0.2,0.1-0.2,0.1c-0.1,0.2,0,0.4,0.1,0.5l0.1,0.1c0.1,0.1,0.2,0.1,0.3,0.2c0.2,0.1,0.4,0.2,0.6,0.4 l0,0c0.1,0.1,0.1,0.1,0.1,0.2l0.2,0.1l0,0.1c-0.6,1.1-0.8,2.3-0.5,3.5l0,0.1l-0.2,0.1c0,0.1-0.1,0.1-0.2,0.2l0,0 c-0.2,0.1-0.5,0.1-0.7,0.2c-0.1,0-0.2,0-0.4,0.1l-0.1,0c-0.2,0.1-0.3,0.2-0.2,0.4c0.1,0.2,0.3,0.3,0.4,0.2l0.1,0 c0.1,0,0.1-0.1,0.2-0.1c0,0,0.1,0,0.1-0.1c0.2-0.1,0.4-0.2,0.7-0.3c0.1,0,0.2,0,0.3,0l0.2,0l0,0.1c0.5,1.1,1.3,2,2.4,2.6l0.1,0 l-0.1,0.2c0,0.1,0,0.1,0,0.2l0,0c-0.1,0.2-0.2,0.4-0.3,0.7C217.3,22.7,217.2,22.8,217.2,22.9z M219.9,21.1c-0.3,0-0.7,0-1-0.1 l-0.1,0l0.9-1.9c0.1-0.1,0.2-0.2,0.3-0.2c0.1,0,0.1,0,0.2,0c0.1,0,0.2,0.1,0.2,0.2l1.2,1.8l-0.5,0.2 C220.7,21,220.3,21.1,219.9,21.1z M219,20.9c0.7,0.2,1.4,0.1,2.1-0.1l0.3-0.1l-1.1-1.6c0,0-0.1-0.1-0.1-0.1c0,0-0.1,0-0.1,0l0,0 c-0.1,0-0.2,0.1-0.2,0.1L219,20.9z M218,20.7L218,20.7c-0.9-0.5-1.5-1.1-1.9-2l0-0.1l2-0.5l0.1,0l0,0.1l0-0.1 c0.2,0,0.4,0.1,0.4,0.3c0,0.1,0,0.2,0,0.3L218,20.7z M216.3,18.7c0.3,0.7,0.9,1.3,1.6,1.7l0.6-1.8c0-0.1,0-0.1,0-0.2 c0-0.1-0.1-0.2-0.3-0.2l-0.1,0L216.3,18.7z M222.2,20.3l-1-1.9c-0.1-0.2,0-0.4,0.2-0.5c0,0,0.1,0,0.1,0v0l0.1,0h0.1l2.1,0.2l0,0.1 C223.5,19,223,19.8,222.2,20.3L222.2,20.3z M221.7,18L221.7,18L221.7,18c-0.1,0-0.1,0-0.2,0c-0.1,0.1-0.2,0.2-0.1,0.4l0.9,1.7 c0.6-0.5,1.1-1.2,1.3-2L221.7,18z M215.9,17.8L215.9,17.8c-0.2-1,0-1.9,0.4-2.7l0-0.1l1.7,1.3c0.2,0.1,0.2,0.4,0.1,0.6 c0,0.1-0.1,0.1-0.2,0.2L215.9,17.8z M216.3,15.3c-0.3,0.7-0.5,1.5-0.3,2.3l1.8-0.7c0.1,0,0.1-0.1,0.1-0.1c0.1-0.1,0.1-0.3-0.1-0.4 L216.3,15.3z M219.9,17.8l-0.6-0.3l-0.2-0.6l0.4-0.6l0.7-0.1l0.5,0.5l-0.1,0.7L219.9,17.8z M219.4,17.5l0.5,0.2l0.5-0.3l0.1-0.5 l-0.4-0.4l-0.6,0l-0.3,0.5L219.4,17.5z M223.9,17.2l-2.1-0.4c-0.2,0-0.4-0.2-0.3-0.5c0-0.1,0-0.2,0.1-0.2l1.4-1.5l0.1,0l0,0.1 c0.3,0.4,0.4,0.8,0.6,1.2C223.8,16.2,223.9,16.7,223.9,17.2L223.9,17.2z M223.1,14.8l-1.4,1.4c0,0-0.1,0.1-0.1,0.1 c0,0.1,0.1,0.3,0.2,0.3l1.9,0.4c0-0.4-0.1-0.8-0.2-1.2C223.4,15.5,223.3,15.1,223.1,14.8z M218.7,15.6c-0.1,0-0.2,0-0.2-0.1 l-1.8-1.1l0.1-0.1c0.5-0.6,1.1-1,1.9-1.2c0.1,0,0.3-0.1,0.4-0.1l0.1,0l0,2.1C219.2,15.4,219,15.5,218.7,15.6 C218.8,15.6,218.8,15.6,218.7,15.6z M216.9,14.4l1.7,1c0,0,0.1,0,0.2,0c0.1,0,0.3-0.1,0.2-0.3l0-1.9c-0.1,0-0.2,0-0.3,0.1 C218,13.5,217.4,13.9,216.9,14.4z M220.6,15.4c-0.1,0-0.2,0-0.3-0.1c-0.1-0.1-0.1-0.1-0.1-0.2l-0.3-2.1l0.1,0 c0.9,0,1.8,0.4,2.4,0.9l0.1,0.1l-1.6,1.4C220.8,15.4,220.7,15.4,220.6,15.4z M220.1,13.1l0.3,1.9c0,0.1,0,0.1,0.1,0.2 c0.1,0.1,0.3,0.1,0.4,0l1.5-1.2C221.7,13.5,220.9,13.2,220.1,13.1z"></path> </g> <g id="path3665"> <path class="st3" d="M240.8,28.9l-0.4,1.6c0,0-2.2-1.3-9-2.5c-6.8-1.1-9.6-1-14.8-0.4c-5.2,0.7-15.6,2.6-23,5.1 c-7.4,2.6-16.7,6.2-23.9,10.7c-7.3,4.1-14,11.7-13.7,11.8c0.3,0.1-1.3-0.5-1.3-1.3c6.5-6.1,10.9-9.8,15.3-12.5 c4.4-2.7,15.7-8,23.1-10.3c7.6-2.5,15.5-4.3,23.5-5.4c7.2-0.9,8.9-0.5,15,0.5C237.6,27.2,240.8,28.9,240.8,28.9L240.8,28.9z"></path> </g> <g> <path class="st18" d="M194.2,88.5c-0.2,0-0.3,0-0.5,0c-1.5-0.3-2.7-1.7-3.3-2.9c-0.4-1.2-0.3-2.4,0.2-3.5c0.7-1.8,2-3.4,3.5-4.5 c1.7-1.1,3.5-1.9,5.5-2.2c1.9-0.3,3.8-0.6,5.8-0.6h0.7c0.6,0,1.1,0,1.7,0.1c0.6,0,1.1,0.1,1.6,0.1h0.9c0.7,0,1.5,0,2.2,0.1 c0.5,0,1.1,0,1.6,0.1h2.2c0.6,0,1.4,0,2.1,0.1c1.7,0.1,3.4,0.5,5,1.1c1.7,0.5,3.2,1.4,4.5,2.5c0.9,0.9,3.9,4,2.6,7.1 c-0.5,1.1-1.3,2-2.5,2.4c-0.3,0.1-0.5,0.1-0.8,0.1c-0.8,0-1.5-0.3-2.1-0.9c-0.3-0.4-0.5-0.9-0.4-1.5c0-0.1,0-0.2-0.1-0.2 c0-0.1-0.1-0.1-0.2-0.1c-0.1,0-0.1,0.1-0.1,0.1c-0.6,1.2-1.8,1.9-3.1,1.8c-1.3,0-2.5-0.6-3.1-1.7c-0.1-0.1-0.2-0.1-0.3-0.1 c-0.2,0-0.3,0-0.4,0.1c-0.8,1.2-2.1,1.9-3.5,1.9c-1.4,0.1-2.7-0.7-3.4-1.9c0,0,0-0.1-0.1-0.1c0,0.1-0.1,0.1-0.1,0.2 c-0.1,1.3-1.6,2.2-2.9,2.2c-0.1,0-0.3,0-0.4,0c-1.1-0.2-2.3-1-3.4-2.5l0,0c0,0-0.1,0.1-0.1,0.1c-0.7,1.7-2.7,2.6-4.5,1.8 c-0.8-0.3-1.5-1-1.8-1.8c0-0.1-0.1-0.2-0.3-0.2c0,0,0,0-0.1,0c0,0,0,0.1,0,0.2c0,0.7-0.3,1.4-0.8,1.9 C195.7,88.1,195,88.4,194.2,88.5L194.2,88.5z"></path> </g> <g> <path class="st6" d="M227.8,78.9c1.7,1.5,3.5,4.1,2.4,6.4c-0.4,1-1.2,1.7-2.1,2.1c-0.9,0.3-2.7-0.2-2.5-1.6c0.1-0.8-1-1.5-1.4-0.6 c-0.9,2-4.1,2-5.3,0.1c-0.4-0.5-1.1-0.5-1.6-0.1c0,0-0.1,0.1-0.1,0.1c-1.2,2.1-4.7,2.1-5.9,0c-0.4-0.8-1.1-0.4-1.2,0.4 c-0.1,1.1-1.7,1.9-2.7,1.7c-1.3-0.2-2.3-1.3-3.1-2.3c-0.4-0.5-0.9-0.3-1.1,0.3c-0.9,2.3-4.4,2.3-5.2,0c-0.3-0.8-1.5-0.8-1.5,0.2 c-0.1,1.3-1.1,2.2-2.4,2.2c-0.1,0-0.1,0-0.2,0c-1.3-0.3-2.3-1.5-2.8-2.6c-0.3-1-0.2-2.1,0.3-3.1c0.7-1.7,1.8-3.2,3.3-4.3 c1.6-1.1,3.4-1.8,5.3-2.1c1.9-0.3,3.8-0.5,5.7-0.6c1.4-0.1,2.9,0.1,4.4,0.1s2.9,0.1,4.3,0.1c1.4,0,2.9,0,4.3,0.1 c1.7,0.1,3.3,0.5,4.9,1.1C225,77,226.5,77.8,227.8,78.9L227.8,78.9z"></path> </g> <g> <path class="st3" d="M230.2,85.3c1-2.3-0.8-4.9-2.4-6.4c-1.3-1.1-2.7-1.9-4.3-2.4c-1.6-0.6-3.2-0.9-4.9-1.1 c-1.4-0.1-2.9,0-4.3-0.1s-2.9-0.1-4.3-0.1c-1.4,0-2.9-0.2-4.4-0.1c-1.9,0.1-3.8,0.3-5.7,0.6c-1.9,0.3-3.7,1.1-5.3,2.1 c-1.5,1.1-2.6,2.6-3.3,4.3c-0.5,1-0.6,2.1-0.3,3.1c0.5,1.1,1.6,2.3,2.8,2.6c1.2,0.2,2.4-0.7,2.6-1.9c0-0.1,0-0.2,0-0.3 c0-1,1.2-1,1.5-0.2c0.9,2.3,4.4,2.3,5.2,0c0.2-0.5,0.7-0.8,1.1-0.3c0.8,1,1.8,2.1,3.1,2.3c1,0.2,2.6-0.6,2.7-1.7 c0.1-0.8,0.8-1.1,1.2-0.4c1.2,2.1,4.7,2.1,5.9,0c0.4-0.5,1.1-0.6,1.6-0.1c0,0,0.1,0.1,0.1,0.1c1.1,1.9,4.3,1.8,5.3-0.1 c0.4-0.9,1.6-0.3,1.4,0.6c-0.2,1.4,1.6,1.9,2.5,1.6C229.1,87,229.8,86.3,230.2,85.3L230.2,85.3z M231.2,80.1 c0.8,1.4,1.1,2.9,0.9,4.5c-0.3,2.1-1.9,4.2-4,4.6c-1.5,0.3-3-0.4-3.8-1.6c-1.8,1.4-4.5,1.1-6.3-0.4c-0.9,0.9-2.2,1.5-3.5,1.5 c-1.3,0.1-2.6-0.3-3.6-1.1c-0.7,0.9-1.7,1.4-2.7,1.5c-1.6,0.1-3-0.9-4.1-2.1c-0.8,1.1-2.1,1.8-3.4,1.8c-1.1,0.1-2.2-0.3-3-1.1 c-0.7,1-1.9,1.6-3.1,1.6c-2.1,0.1-3.7-1.5-4.5-3.3c0,0,0.1-0.1,0.1-0.2c0,0,0-0.1,0-0.1c-0.7-1.7-0.3-3.2,0.5-4.7 c1.1-2.1,2.5-4,4.7-5c1.5-0.8,3.1-1.4,4.7-1.8c1.7-0.3,3.3-0.6,5-0.7c1.7-0.1,3.4,0.4,5.1,0.3c1.5,0,3.1-0.4,4.7-0.4 s3.1,0.4,4.7,0.6c1.6,0.1,3.1,0.4,4.6,0.9c1.5,0.4,2.8,1.1,4.1,2C229.2,77.7,230.3,78.8,231.2,80.1L231.2,80.1z"></path> </g> <g> <path class="st5" d="M328.5,239.6c-1.2-2.3-2.5-4.7-3.9-7.1c-1.3-2.2-2.9-4.3-4.8-6.1c-0.6,0.6-1.3,1.5-2.1,2.6 c-0.9,1.1-1.7,2.3-2.6,3.5s-1.7,2.5-2.4,3.9c-0.8,1.3-1.3,2.4-1.7,3.1h-10.7c1.9-3.5,4-6.9,6.3-10.1c2.4-3.5,5-7.2,8-11.1 l-13.6-20.6h11.4l8,12.1l8.1-12.1h10.7L325.5,218c3.2,3.9,6.1,8,8.8,12.2c2.3,3.7,4.1,6.8,5.4,9.4H328.5z"></path> </g> <g> <path class="st3" d="M93.9,197.9H71.7v2.3c0.5,0.1,1.2,0.2,2.1,0.4c0.7,0.1,1.5,0.3,2.1,0.6c0.7,0.2,1.2,0.6,1.6,1.2 c0.2,0.6,0.4,1.2,0.3,1.8V230c0,3.4-0.7,6-2,7.6c-1.3,1.7-3.4,2.6-5.5,2.5c-0.6,0-1.2-0.1-1.8-0.4c-0.5-0.2-0.9-0.5-1.1-1v-0.4 c1.1-0.9,2.1-1.9,3-2.9c0.8-1,1.3-2.2,1.3-3.5c0-1.4-0.5-2.7-1.5-3.7c-1.1-1-2.6-1.6-4.1-1.5c-1.6-0.1-3.2,0.6-4.2,1.8 c-1.1,1.3-1.6,2.9-1.5,4.5c-0.1,2.8,1.1,5.5,3.4,7.2c2.2,1.8,5.2,2.6,8.8,2.6c2,0,4-0.3,5.9-0.9c1.8-0.6,3.5-1.5,5-2.7 c1.5-1.2,2.7-2.7,3.5-4.4c0.9-1.8,1.3-3.8,1.3-5.8v-25.3c0-0.6,0.1-1.3,0.3-1.9c0.3-0.6,0.9-1,1.5-1.1c0.7-0.2,1.3-0.3,1.8-0.4 c0.5-0.1,1.2-0.2,2-0.3L93.9,197.9z M118.3,234.8c-1.5,1-3.2,1.5-5,1.5c-3.4,0-5.8-1-7.4-3.1s-2.3-5.1-2.3-9.1h19.8v-1.9 c0-1.6-0.3-3.2-0.8-4.8c-0.5-1.5-1.3-2.8-2.4-3.9c-1.2-1.2-2.7-2.2-4.4-2.8c-2.2-0.7-4.5-1.1-6.7-1c-2.3,0-4.6,0.4-6.8,1.3 c-3.7,1.5-6.7,4.5-8.2,8.2c-0.7,1.8-1.1,3.8-1.1,5.7c0,2.1,0.3,4.2,1,6.1c0.7,1.8,1.7,3.5,3.1,4.9c1.5,1.4,3.3,2.6,5.2,3.3 c2.4,0.9,4.9,1.3,7.5,1.2c1.6,0,3.1-0.2,4.6-0.6c1.4-0.4,2.7-1,4-1.7c1.2-0.7,2.3-1.5,3.3-2.5c0.9-1,1.8-2,2.5-3.1l-2.2-1.6 C121.1,232.4,119.8,233.7,118.3,234.8L118.3,234.8z M105.2,214.3c0.9-1.5,2.1-2.3,3.6-2.3c0.8,0,1.6,0.2,2.2,0.7 c0.6,0.6,1.1,1.3,1.4,2.1c0.3,1,0.5,2,0.6,3c0.1,1.2,0.2,2.4,0.2,3.6l-9.4,0.1C103.8,218.2,104.3,215.8,105.2,214.3L105.2,214.3z M161.3,236.7c-0.5-0.2-0.9-0.5-1.2-1c-0.3-0.5-0.4-1.1-0.3-1.7v-14.4c0-3-0.8-5.4-2.4-7.2c-1.6-1.8-4-2.7-7.2-2.7 c-1.3,0-2.5,0.2-3.7,0.5c-1,0.3-2,0.7-2.8,1.2c-0.8,0.5-1.5,1.1-2.2,1.7c-0.8,0.7-1.5,1.3-2,1.8h-0.1v-4.2l-0.4-0.4l-14,0.8v2.1 c0.6,0.1,1.2,0.2,1.8,0.3c0.5,0.1,0.9,0.3,1.3,0.6c0.5,0.4,0.9,0.9,1.2,1.4c0.3,0.6,0.5,1.2,0.5,1.8v17.1c0,0.6-0.1,1.2-0.4,1.8 c-0.3,0.5-0.7,0.9-1.3,1c-0.4,0.1-0.8,0.2-1.3,0.3c-0.5,0.1-1,0.1-1.5,0.2v2.1h17.8v-2.1c-0.5-0.1-0.9-0.2-1.4-0.3 c-0.4-0.1-0.8-0.3-1.2-0.5c-0.4-0.2-0.8-0.6-1-1c-0.2-0.5-0.3-1.1-0.3-1.7v-15.7c0.2-0.3,0.5-0.7,0.9-1.1c0.4-0.5,0.9-0.9,1.4-1.2 c0.6-0.4,1.3-0.8,2-1c0.7-0.2,1.5-0.4,2.2-0.4c1.3-0.1,2.5,0.5,3.2,1.5c0.7,1,1.1,2.5,1.1,4.5v13.7c0,0.6-0.1,1.2-0.3,1.8 c-0.2,0.4-0.5,0.7-0.9,0.9c-0.4,0.2-0.8,0.3-1.2,0.3c-0.5,0-1,0.1-1.3,0.1v2.1H164v-2.2c-0.5-0.1-1.1-0.2-1.6-0.3 C162.1,237,161.7,236.9,161.3,236.7L161.3,236.7z M215.9,197.2c-1.5,0-3,0.5-4.1,1.6c-2.1,1.9-2.3,5.1-0.4,7.2 c0.1,0.1,0.2,0.3,0.4,0.4c1.1,1,2.6,1.6,4.1,1.6c1.5,0,3-0.5,4.1-1.6c1.1-1,1.7-2.3,1.7-3.8c0-1.5-0.6-2.8-1.7-3.8 C218.9,197.7,217.4,197.1,215.9,197.2z M263.9,236.7c-0.5-0.2-0.9-0.5-1.2-1c-0.2-0.5-0.4-1.1-0.3-1.7v-14.4c0-3-0.8-5.4-2.4-7.2 c-1.6-1.8-4-2.7-7.2-2.7c-1.3,0-2.5,0.2-3.7,0.5c-1,0.3-2,0.7-2.8,1.2c-0.8,0.5-1.5,1.1-2.2,1.7c-0.8,0.7-1.5,1.3-2,1.8h-0.1v-4.2 l-0.4-0.4l-14,0.8v2.1c0.6,0.1,1.2,0.2,1.8,0.3c0.5,0.1,0.9,0.3,1.3,0.6c0.5,0.4,0.9,0.9,1.2,1.4c0.3,0.6,0.5,1.2,0.5,1.8v17.1 c0,0.6-0.1,1.2-0.4,1.8c-0.3,0.5-0.7,0.9-1.3,1c-0.4,0.1-0.8,0.2-1.3,0.3c-0.5,0.1-1,0.1-1.5,0.2v2.1h17.8v-2.1 c-0.5-0.1-0.9-0.2-1.4-0.3c-0.4-0.1-0.8-0.3-1.1-0.5c-0.4-0.2-0.8-0.6-1-1c-0.2-0.5-0.3-1.1-0.3-1.7v-15.7 c0.2-0.3,0.5-0.7,0.9-1.1c0.4-0.5,0.9-0.9,1.4-1.2c0.6-0.4,1.3-0.8,2-1c0.7-0.2,1.5-0.4,2.2-0.4c1.3-0.1,2.5,0.5,3.2,1.5 c0.7,1,1.1,2.5,1.1,4.5v13.7c0,0.6-0.1,1.2-0.3,1.8c-0.2,0.4-0.5,0.7-0.9,0.9c-0.4,0.2-0.8,0.3-1.2,0.3c-0.5,0-1,0.1-1.3,0.1v2.1 h17.6v-2.2c-0.5-0.1-1.1-0.2-1.6-0.3C264.7,237,264.3,236.9,263.9,236.7L263.9,236.7z M293.4,224.4c-0.7-0.6-0.5-0.5-0.2-0.2 c-1.6-1.4-4.1-2.6-7.4-3.5c-1.8-0.4-3.6-1.1-5.3-1.9c-1.2-0.6-2-1.9-1.9-3.2c0-1,0.5-2,1.3-2.6c1-0.7,2.3-1,3.5-0.9 c2,0,3.9,0.8,5.4,2.2c1.6,1.4,2.8,3.2,3.5,5.3h2.1l-0.5-10h-2.2v0c0.1,0.4-0.1,0.9-0.5,1.2c-0.7,0.3-2-0.1-2-0.1 c-0.6-0.2-1.2-0.4-1.9-0.5c-1.6-0.4-3.3-0.6-4.9-0.5c-3.8,0-6.8,0.8-9.1,2.5c-2.2,1.5-3.5,4-3.5,6.7c0,1.3,0.2,2.6,0.8,3.8 c0.5,1.1,1.2,2,2.1,2.8c0.9,0.8,1.9,1.4,2.9,1.9c1.1,0.5,2.3,0.9,3.4,1.2l3.4,1c0.9,0.3,1.7,0.6,2.5,1c0.6,0.3,1.2,0.8,1.6,1.3 c0.4,0.6,0.6,1.2,0.6,1.9c0.1,1.2-0.4,2.4-1.3,3.2c-0.9,0.7-2.2,1-4,1c-1.3,0-2.6-0.3-3.8-0.9c-1.1-0.6-2.2-1.4-3.1-2.2 c-0.9-0.9-1.7-1.9-2.3-3c-0.6-0.9-1.1-1.9-1.5-3h-2.1l0.3,8l0.1,3h2.1v0c-0.1-0.5,0.1-1,0.5-1.3c0.9-0.4,1.9,0,2.8,0.4 c0.6,0.2,1.2,0.5,2,0.7c0.3,0.1,0.6,0.2,0.9,0.3c1.5,0.4,3.1,0.6,4.7,0.6c4,0,7.3-0.9,9.8-2.7c2.5-1.7,3.9-4.5,3.8-7.4 c0.1-2.1-0.7-4.2-2.2-5.7C293.9,224.9,294.1,225.1,293.4,224.4L293.4,224.4z M201.5,236.9c-0.9-0.3-1.8-1-2.3-1.8 c-1.8-2.6-3.5-5.1-5.1-7.5l-5.3-7.7c1-0.9,1.9-1.6,2.6-2.2s1.5-1.1,2.3-1.7c2.3-1.6,4.8-2.8,7.5-3.5v-2h-14.5v2.1 c1,0.1,1.9,0.3,2.8,0.6c0.6,0.2,0.9,0.5,0.9,0.9c0,0.2-0.1,0.4-0.1,0.6c-0.2,0.6-0.6,1.1-1.1,1.5c-1.1,1.1-2.5,2.5-4.3,4.2 c-1.8,1.7-3.4,3.2-4.9,4.5v-30.3l-0.4-0.5l-14.6,0.8v2.1c0.7,0,1.4,0.1,2,0.3c0.6,0.1,1.1,0.3,1.7,0.6c0.6,0.4,1,0.9,1.2,1.6 c0.3,0.6,0.4,1.3,0.4,2v32.7c0,0.6-0.1,1.2-0.3,1.8c-0.3,0.5-0.7,0.9-1.3,1c-0.4,0.1-0.9,0.2-1.3,0.3c-0.5,0.1-1,0.1-1.5,0.2v2.1 h18.2v-2.1c-0.5,0-0.9-0.1-1.4-0.2c-0.4-0.1-0.8-0.2-1.2-0.4c-0.5-0.2-0.9-0.5-1.2-1c-0.2-0.5-0.3-1.1-0.3-1.7v-6.4l1.7-1.5 c1.2,1.8,2.6,3.7,4,5.8c1.4,2.1,3,4.6,4.7,7.6h13.7v-2C203.3,237.4,202.4,237.2,201.5,236.9L201.5,236.9z M222.6,236.7 c-0.5-0.2-1-0.6-1.3-1.1c-0.3-0.5-0.5-1.1-0.4-1.7v-23.3l-0.4-0.4l-15,0.8v2.1c0.9,0.1,1.7,0.2,2.6,0.4c0.6,0.1,1.1,0.4,1.6,0.7 c1,0.7,1.6,1.8,1.6,3v17.1c0,0.6-0.1,1.2-0.4,1.7c-0.3,0.5-0.8,0.8-1.3,1c-0.4,0.1-0.8,0.2-1.3,0.3c-0.5,0-1,0.1-1.5,0.1v2.1h18.6 v-2.1c-0.5-0.1-1-0.2-1.5-0.3C223.4,237,223,236.8,222.6,236.7z"></path> </g> </g> </svg> 