<svg xmlns="http://www.w3.org/2000/svg" viewBox="0 0 100 100" width="100" height="100"><path fill="none" pointer-events="none" d="M0 0h100v100H0z"/><path d="M49.901 6.267l36.314 17.34 8.973 38.971-25.126 31.256-40.304.004-25.132-31.25 8.964-38.972z" fill="#FFF"/><path d="M49.901 6.267l36.314 17.34 8.973 38.971-25.126 31.256-40.304.004-25.132-31.25 8.964-38.972z" fill="none"/><path fill="#326CE5" d="M49.564 2.061a6.627 6.627 0 0 0-2.52.638L12.646 19.134c-1.773.847-3.121 2.523-3.559 4.425L.603 60.476a6.556 6.556 0 0 0 1.266 5.52l23.808 29.602c1.227 1.526 3.174 2.455 5.142 2.455l38.18-.01c1.966.002 3.914-.926 5.142-2.45l23.8-29.605a6.582 6.582 0 0 0 1.27-5.521L90.714 23.55c-.438-1.904-1.786-3.58-3.559-4.426l-34.4-16.426a6.65 6.65 0 0 0-3.19-.638z"/><path fill="#FFF" d="M49.838 61.57a1.8 1.8 0 0 1 .85.182c.36.173.639.446.814.773h.04l5.239 9.467c-.68.228-1.38.423-2.094.585-4.007.91-8.001.635-11.618-.598l5.226-9.45h.009a1.818 1.818 0 0 1 1.534-.958zm-8.978-4.358a1.815 1.815 0 0 1 1.64 2.53l.032.039-4.117 9.95a21.315 21.315 0 0 1-8.556-10.707l10.627-1.803.018.022c.12-.022.24-.034.356-.031zm18.006-.044c.14-.008.28.005.417.03l.018-.021 10.721 1.812a21.235 21.235 0 0 1-8.583 10.782L57.278 59.72l.013-.018a1.817 1.817 0 0 1 1.575-2.533zm-10.62-8.807h3.313l2.059 2.573-.74 3.211-2.974 1.43-2.982-1.434-.739-3.21 2.064-2.57zm19.8-7.787a21.473 21.473 0 0 1 2.653 6.48c.535 2.33.67 4.655.449 6.902l-10.417-3-.009-.044a1.815 1.815 0 0 1-.713-3.119l-.003-.022 8.04-7.197zm-36.34-.004l8.085 7.232-.009.044a1.813 1.813 0 0 1-.712 3.12l-.01.034-10.363 2.991a21.2 21.2 0 0 1 3.01-13.42zm20.78-9.977a21.391 21.391 0 0 1 12.336 5.947l-8.798 6.238-.031-.013a1.816 1.816 0 0 1-2.886-1.386l-.009-.004-.611-10.782zm-5.16 0l-.61 10.8-.045.022a1.814 1.814 0 0 1-2.881 1.39l-.018.01-8.855-6.278a21.202 21.202 0 0 1 10.214-5.565c.734-.167 1.466-.29 2.196-.38zm2.578-15.969c-1.136 0-2.058 1.025-2.058 2.288 0 .02.004.038.005.057-.002.171-.01.378-.005.528.027.728.186 1.286.282 1.958.173 1.436.318 2.627.229 3.734-.088.418-.395.8-.669 1.065l-.049.87c-1.235.103-2.479.29-3.721.573a26.483 26.483 0 0 0-13.452 7.685c-.228-.155-.626-.44-.744-.528-.368.05-.739.163-1.223-.119-.92-.62-1.76-1.476-2.775-2.507-.466-.493-.802-.963-1.356-1.439-.125-.108-.316-.253-.457-.365a2.453 2.453 0 0 0-1.434-.54c-.633-.023-1.242.225-1.641.725-.709.89-.482 2.248.506 3.036l.03.022c.136.11.303.25.428.343.586.433 1.122.655 1.706.999 1.231.76 2.252 1.391 3.062 2.151.316.337.372.93.413 1.188l.66.589c-3.532 5.315-5.167 11.882-4.2 18.572l-.863.251c-.227.293-.548.755-.884.893-1.06.333-2.252.456-3.69.607-.677.056-1.26.022-1.976.159-.158.03-.378.086-.55.127l-.018.004-.03.009c-1.214.293-1.994 1.409-1.743 2.507.251 1.1 1.437 1.768 2.658 1.505l.03-.004c.014-.004.026-.01.04-.013.17-.038.383-.08.533-.12.704-.188 1.214-.465 1.847-.708 1.362-.488 2.49-.896 3.59-1.056.459-.035.943.284 1.184.418l.897-.154c2.064 6.403 6.392 11.578 11.872 14.825l-.374.898c.135.349.283.82.183 1.164-.4 1.036-1.084 2.13-1.863 3.35-.378.563-.764 1-1.104 1.645-.082.153-.186.39-.264.554-.53 1.132-.141 2.436.875 2.925 1.023.493 2.292-.027 2.842-1.161 0-.002.004-.003.004-.005v-.004c.079-.16.19-.372.255-.524.292-.668.39-1.24.594-1.886.545-1.369.844-2.805 1.594-3.699.206-.245.54-.34.887-.432l.466-.845a26.606 26.606 0 0 0 19 .049c.13.232.375.678.44.791.352.115.737.174 1.05.638.562.958.946 2.093 1.414 3.463.204.646.306 1.218.597 1.886.067.153.177.367.255.528.549 1.138 1.823 1.66 2.847 1.166 1.016-.49 1.405-1.794.875-2.926-.079-.162-.187-.4-.268-.554-.34-.644-.727-1.077-1.104-1.64-.78-1.22-1.426-2.233-1.826-3.27-.167-.533.028-.866.158-1.213-.077-.09-.244-.594-.343-.832 5.696-3.363 9.896-8.73 11.869-14.93.266.042.73.124.88.154.31-.204.594-.471 1.152-.427 1.1.159 2.228.567 3.59 1.056.633.242 1.144.524 1.848.713.149.04.361.077.532.114.014.003.026.01.04.013.009.002.022.002.03.005 1.221.262 2.407-.406 2.658-1.505.25-1.099-.529-2.215-1.742-2.507-.177-.04-.427-.109-.599-.141-.716-.136-1.299-.102-1.974-.158-1.44-.152-2.632-.274-3.692-.607-.431-.168-.739-.682-.889-.894l-.83-.242a26.576 26.576 0 0 0-.432-9.612 26.65 26.65 0 0 0-3.857-8.916c.213-.194.616-.55.73-.656.033-.369.005-.757.387-1.166.81-.76 1.83-1.39 3.062-2.15.584-.345 1.124-.566 1.71-1 .133-.097.315-.253.454-.365.988-.788 1.215-2.146.505-3.035-.708-.89-2.082-.973-3.07-.185-.14.112-.331.257-.457.366-.553.475-.894.945-1.36 1.438-1.015 1.031-1.854 1.892-2.775 2.512-.4.232-.984.152-1.25.136l-.783.559c-4.465-4.682-10.544-7.676-17.09-8.257-.019-.275-.043-.77-.049-.92-.267-.256-.59-.475-.673-1.029-.09-1.107.06-2.298.233-3.734.096-.672.255-1.23.282-1.958.006-.166-.003-.406-.004-.585 0-1.263-.922-2.288-2.06-2.288z"/><path fill="none" d="M49.838 61.57a1.8 1.8 0 0 1 .85.182c.36.173.639.446.814.773h.04l5.239 9.467c-.68.228-1.38.423-2.094.585-4.007.91-8.001.635-11.618-.598l5.226-9.45h.009a1.818 1.818 0 0 1 1.534-.958zm-8.978-4.358a1.815 1.815 0 0 1 1.64 2.53l.032.039-4.117 9.95a21.315 21.315 0 0 1-8.556-10.707l10.627-1.803.018.022c.12-.022.24-.034.356-.031zm18.006-.044c.14-.008.28.005.417.03l.018-.021 10.721 1.812a21.235 21.235 0 0 1-8.583 10.782L57.278 59.72l.013-.018a1.817 1.817 0 0 1 1.575-2.533zm-10.62-8.807h3.313l2.059 2.573-.74 3.211-2.974 1.43-2.982-1.434-.739-3.21 2.064-2.57zm19.8-7.787a21.473 21.473 0 0 1 2.653 6.48c.535 2.33.67 4.655.449 6.902l-10.417-3-.009-.044a1.815 1.815 0 0 1-.713-3.119l-.003-.022 8.04-7.197zm-36.34-.004l8.085 7.232-.009.044a1.813 1.813 0 0 1-.712 3.12l-.01.034-10.363 2.991a21.2 21.2 0 0 1 3.01-13.42zm20.78-9.977a21.391 21.391 0 0 1 12.336 5.947l-8.798 6.238-.031-.013a1.816 1.816 0 0 1-2.886-1.386l-.009-.004-.611-10.782zm-5.16 0l-.61 10.8-.045.022a1.814 1.814 0 0 1-2.881 1.39l-.018.01-8.855-6.278a21.202 21.202 0 0 1 10.214-5.565c.734-.167 1.466-.29 2.196-.38zm2.578-15.969c-1.136 0-2.058 1.025-2.058 2.288 0 .02.004.038.005.057-.002.171-.01.378-.005.528.027.728.186 1.286.282 1.958.173 1.436.318 2.627.229 3.734-.088.418-.395.8-.669 1.065l-.049.87c-1.235.103-2.479.29-3.721.573a26.483 26.483 0 0 0-13.452 7.685c-.228-.155-.626-.44-.744-.528-.368.05-.739.163-1.223-.119-.92-.62-1.76-1.476-2.775-2.507-.466-.493-.802-.963-1.356-1.439-.125-.108-.316-.253-.457-.365a2.453 2.453 0 0 0-1.434-.54c-.633-.023-1.242.225-1.641.725-.709.89-.482 2.248.506 3.036l.03.022c.136.11.303.25.428.343.586.433 1.122.655 1.706.999 1.231.76 2.252 1.391 3.062 2.151.316.337.372.93.413 1.188l.66.589c-3.532 5.315-5.167 11.882-4.2 18.572l-.863.251c-.227.293-.548.755-.884.893-1.06.333-2.252.456-3.69.607-.677.056-1.26.022-1.976.159-.158.03-.378.086-.55.127l-.018.004-.03.009c-1.214.293-1.994 1.409-1.743 2.507.251 1.1 1.437 1.768 2.658 1.505l.03-.004c.014-.004.026-.01.04-.013.17-.038.383-.08.533-.12.704-.188 1.214-.465 1.847-.708 1.362-.488 2.49-.896 3.59-1.056.459-.035.943.284 1.184.418l.897-.154c2.064 6.403 6.392 11.578 11.872 14.825l-.374.898c.135.349.283.82.183 1.164-.4 1.036-1.084 2.13-1.863 3.35-.378.563-.764 1-1.104 1.645-.082.153-.186.39-.264.554-.53 1.132-.141 2.436.875 2.925 1.023.493 2.292-.027 2.842-1.161 0-.002.004-.003.004-.005v-.004c.079-.16.19-.372.255-.524.292-.668.39-1.24.594-1.886.545-1.369.844-2.805 1.594-3.699.206-.245.54-.34.887-.432l.466-.845a26.606 26.606 0 0 0 19 .049c.13.232.375.678.44.791.352.115.737.174 1.05.638.562.958.946 2.093 1.414 3.463.204.646.306 1.218.597 1.886.067.153.177.367.255.528.549 1.138 1.823 1.66 2.847 1.166 1.016-.49 1.405-1.794.875-2.926-.079-.162-.187-.4-.268-.554-.34-.644-.727-1.077-1.104-1.64-.78-1.22-1.426-2.233-1.826-3.27-.167-.533.028-.866.158-1.213-.077-.09-.244-.594-.343-.832 5.696-3.363 9.896-8.73 11.869-14.93.266.042.73.124.88.154.31-.204.594-.471 1.152-.427 1.1.159 2.228.567 3.59 1.056.633.242 1.144.524 1.848.713.149.04.361.077.532.114.014.003.026.01.04.013.009.002.022.002.03.005 1.221.262 2.407-.406 2.658-1.505.25-1.099-.529-2.215-1.742-2.507-.177-.04-.427-.109-.599-.141-.716-.136-1.299-.102-1.974-.158-1.44-.152-2.632-.274-3.692-.607-.431-.168-.739-.682-.889-.894l-.83-.242a26.576 26.576 0 0 0-.432-9.612 26.65 26.65 0 0 0-3.857-8.916c.213-.194.616-.55.73-.656.033-.369.005-.757.387-1.166.81-.76 1.83-1.39 3.062-2.15.584-.345 1.124-.566 1.71-1 .133-.097.315-.253.454-.365.988-.788 1.215-2.146.505-3.035-.708-.89-2.082-.973-3.07-.185-.14.112-.331.257-.457.366-.553.475-.894.945-1.36 1.438-1.015 1.031-1.854 1.892-2.775 2.512-.4.232-.984.152-1.25.136l-.783.559c-4.465-4.682-10.544-7.676-17.09-8.257-.019-.275-.043-.77-.049-.92-.267-.256-.59-.475-.673-1.029-.09-1.107.06-2.298.233-3.734.096-.672.255-1.23.282-1.958.006-.166-.003-.406-.004-.585 0-1.263-.922-2.288-2.06-2.288z"/></svg>
