<?xml version="1.0" encoding="UTF-8"?> <!-- Generator: Adobe Illustrator 23.0.1, SVG Export Plug-In . SVG Version: 6.00 Build 0) --> <svg xmlns="http://www.w3.org/2000/svg" xmlns:xlink="http://www.w3.org/1999/xlink" id="Layer_1" x="0px" y="0px" viewBox="0 0 400 245" style="enable-background:new 0 0 400 245;" xml:space="preserve"> <style type="text/css"> .st0{fill:url(#SVGID_1_);} .st1{fill:url(#SVGID_2_);} .st2{fill-rule:evenodd;clip-rule:evenodd;fill:url(#SVGID_3_);} .st3{fill:url(#SVGID_4_);} .st4{fill-rule:evenodd;clip-rule:evenodd;fill:url(#SVGID_5_);} .st5{fill:url(#SVGID_6_);} .st6{fill:url(#SVGID_7_);} </style> <g> <g> <linearGradient id="SVGID_1_" gradientUnits="userSpaceOnUse" x1="16.462" y1="117.3947" x2="155.8864" y2="269.3515"> <stop offset="0" style="stop-color:#A677B4"></stop> <stop offset="0.3626" style="stop-color:#F0515A"></stop> <stop offset="1" style="stop-color:#2B338C"></stop> </linearGradient> <polygon class="st0" points="116.9,208.5 105,243.1 91.8,243.1 103.6,208.5 94.2,208.5 97.9,197.6 130,197.6 126.3,208.5 "></polygon> <linearGradient id="SVGID_2_" gradientUnits="userSpaceOnUse" x1="28.8926" y1="105.9893" x2="168.3169" y2="257.9461"> <stop offset="0" style="stop-color:#A677B4"></stop> <stop offset="0.3626" style="stop-color:#F0515A"></stop> <stop offset="1" style="stop-color:#2B338C"></stop> </linearGradient> <polygon class="st1" points="149,232.2 145.3,243.1 111,243.1 126.6,197.6 156.6,197.6 153,208.1 136.7,208.1 134.5,214.7 151.1,214.7 147.6,224.8 131,224.8 128.5,232.2 "></polygon> <g> <linearGradient id="SVGID_3_" gradientUnits="userSpaceOnUse" x1="130.2908" y1="12.9538" x2="269.7151" y2="164.9106"> <stop offset="0" style="stop-color:#A677B4"></stop> <stop offset="0.3626" style="stop-color:#F0515A"></stop> <stop offset="1" style="stop-color:#2B338C"></stop> </linearGradient> <path class="st2" d="M200.7,87.1V89 M250.7,148.6l1.7-0.4l0.2,1.3c0.9,5.9,0.5,11-1.9,16.2c3.7,0.5,6.9,2.3,8.6,6 c1.2,2.7,2.4,5.7,2.4,8.7c0,2.2-0.7,4.4-2.4,5.8c-1,0.8-2.3,1.3-3.6,1.3h-19.3c-1.1,3-3.3,5.8-6.5,6.7c-0.9,0.2-1.8,0.3-2.7,0.4 c-1,0-1.9,0.1-2.9,0.1c-2.5,0-5,0-7.5,0c-3.9,0-7.8-0.1-11.7-0.2c-2.4-0.1-4.5-1.5-5.5-3.6c-1,2.1-3.1,3.5-5.5,3.6 c-3.9,0.1-7.8,0.2-11.7,0.2c-2.5,0-5,0-7.5,0c-1,0-1.9,0-2.9-0.1c-0.9-0.1-1.8-0.1-2.7-0.4c-3.2-0.8-5.4-3.6-6.5-6.7h-19.1 c-1.3,0-2.6-0.5-3.6-1.3c-1.7-1.4-2.4-3.6-2.4-5.8c0-2.9,1.2-6,2.4-8.7c0.6-1.4,1.6-2.7,2.8-3.7c1.6-1.3,3.6-2,5.6-2.3 c-2.4-5.2-2.8-10.3-1.9-16.2l0.2-1.3l1.9,0.5c0.2-1.1,0.5-2.2,0.9-3.3c1.3-3.9,3.6-7.4,6.8-9.9c1.2-0.9,2.4-1.7,3.7-2.3 c0.2-3.5,0.6-7,1.4-10.5c0.7-4.7,2-9.2,4.1-13.5c-1-1.2-1.8-2.5-2.5-3.9c-0.1-0.2-0.2-0.4-0.3-0.7c-6-3.4-11.5-7.9-16.3-13.8 c-2.7-3.3-6.7-8.5-7-12.8c-0.2-1.5-0.2-3-0.2-4.6c-0.1-3.7,0.2-7.3,0.6-10.9c0.3-2.1,0.6-4.2,1-6.3c-2.8-3.2-5.3-6.8-7.3-10.5 c-3.2-5.9-5.3-12.4-6.1-19.1c-0.8-6.6-0.2-13.3,1.5-19.8c0.9-3.2,3.8-5.5,7.1-5.5c12.6,0,23.5,5.1,33.6,11.8 c18.9-11.6,42.9-11.7,61.9,0c10.1-6.6,21-11.8,33.6-11.8c3.4,0,6.3,2.2,7.2,5.5c1.7,6.5,2.3,13.1,1.5,19.8 c-0.8,6.7-2.9,13.1-6.1,19.1c-2,3.8-4.5,7.3-7.3,10.5c0.4,2,0.7,4,1,6c0.5,3.7,0.7,7.4,0.6,11.2c0,1.6-0.1,3.1-0.2,4.6 c-0.4,4.5-4.2,9.5-7,12.9c-4.8,5.9-10.3,10.4-16.3,13.8c-0.1,0.2-0.2,0.4-0.3,0.7c-0.5,1.1-1.1,2.2-1.7,3.2c-0.6,1-1.3,1.8-2,2.6 c0.5,1.2,1,2.4,1.4,3.7c0.9,2.6,1.5,5.3,1.9,8.1c0.3,1.4,0.6,2.8,0.8,4.2c5.6-9.4,13-17.8,22.3-23c5.5-3.1,11.7-5,18-4.8 c6.7,0.2,13.3,3.3,18.4,7.6c5.6,4.7,10.1,11.4,10.9,18.8c0.1,1.2,0,2.4-0.2,3.6c-1,4-4,7.1-7.6,8.8c-4.6,2.2-10.4,2.1-14.3-1.6 c-2.2-2.1-2.9-4.4-4-7.1c-0.7-1.6-1.4-2.8-2.7-3.8c-1.9-1.4-4.2-2.1-6.5-2c-3.3,0.2-6.3,2.1-8.6,4.4c-1.3,1.3-2.5,2.7-3.7,4.1 c-2.2,2.7-4.2,5.6-6,8.6c-1.4,2.3-2.6,4.7-3.6,7.2c-0.1,0.1-0.1,0.3-0.2,0.4C250.7,148.4,250.7,148.5,250.7,148.6L250.7,148.6z M255.8,127.6c0.3,0,0.6,0,0.9,0.2c1.1-1.3,2.3-2.6,3.5-3.8c0.4-0.4,0.8-0.7,1.2-1.1c-1.5-1-2.8-2.5-3.7-4.1 c-0.8-1.3-1.4-2.9-1.6-4.5c-2.4,2.1-4.7,4.5-6.9,7.2c-0.1,1.7,1.5,3.7,2.7,4.6C253,127,254.4,127.7,255.8,127.6L255.8,127.6z M254.1,131.1c-1.6-0.3-3.1-1-4.4-2.1c-1.2-1-2.4-2.3-3.2-3.8c-2.1,3-4.1,6.3-5.9,9.9c0.6,0.4,1.2,0.8,1.8,1.2 c2,1.6,3.7,3.6,4.9,5.9C248.9,139,251.2,135,254.1,131.1L254.1,131.1z M284.1,121.6c0,0.2-0.1,0.4-0.1,0.6 c3.7,3.7,3.6,7.9,5.9,10.2c4.1,3.9,13.2-0.5,12.7-6.1c-0.5-4.9-3.3-9.8-7.3-13.6c0,0,0,0-0.1-0.1c-0.6-0.6-1.3-0.8-2.1-0.8 C288.1,111.6,284.3,116.8,284.1,121.6L284.1,121.6z M280.6,119.8c0.2-1.2,0.6-2.5,1.1-3.6c1.6-3.6,4.6-6.6,8.3-7.7 c-3.5-2.2-7.5-3.5-11.2-3.6c-1.1,0-2.2,0-3.3,0.1c-0.3,0.2-0.7,0.5-0.8,0.6c-0.2,0.2-0.4,0.4-0.6,0.5c-2.5,2.8-2.2,8.2-0.1,11.1 c0.1,0.2,0.2,0.4,0.3,0.6C276.6,118.1,278.7,118.8,280.6,119.8L280.6,119.8z M270.2,118.3c-1-1.9-1.6-4.1-1.6-6.3 c0-1.9,0.3-3.9,1.1-5.7c-2,0.7-4.1,1.6-6.1,2.7c-1.2,0.6-2.3,1.4-3.5,2.2c0,0,0,0,0,0.1c-1.1,1.6-0.1,4.3,0.8,5.8 c0.8,1.3,1.9,2.7,3.3,3.3c0.2,0.1,0.3,0.2,0.4,0.3C266.5,119.4,268.4,118.7,270.2,118.3L270.2,118.3z M195.3,17.2 c1,0,1.7,0.8,1.7,1.7c0,1-0.8,1.7-1.7,1.7c-1,0-1.7-0.8-1.7-1.7C193.6,18,194.4,17.2,195.3,17.2L195.3,17.2z M195.3,24.9 c1,0,1.7,0.8,1.7,1.7s-0.8,1.7-1.7,1.7c-1,0-1.7-0.8-1.7-1.7S194.4,24.9,195.3,24.9L195.3,24.9z M206.1,17.2c1,0,1.7,0.8,1.7,1.7 c0,1-0.8,1.7-1.7,1.7c-1,0-1.7-0.8-1.7-1.7C204.4,18,205.2,17.2,206.1,17.2L206.1,17.2z M206.1,24.9c1,0,1.7,0.8,1.7,1.7 s-0.8,1.7-1.7,1.7c-1,0-1.7-0.8-1.7-1.7S205.2,24.9,206.1,24.9L206.1,24.9z M202.2,11.5v20.9c11.2,0.2,22.1,3.3,28.9,9.3 c7.8,6.9,13,18.7,12.4,25C243,72.2,234,76,222.1,78c0.6,1.1,1,2.2,1.2,3.5c0.3,1.7,0.3,3.5,0,5.1c4.5-0.5,8.6-1.2,12.2-2 c8.8-1.9,15-4.2,18.8-5.7c0.2-0.6,0.4-1.2,0.4-1.7c0,0,2.6-23.5-10.8-42.8C233.7,19.5,218,11.9,202.2,11.5L202.2,11.5z M199.3,32.3V11.5c-16.1,0.5-32,8.4-42.2,23.7c-12.8,19.1-10.3,42.1-10.3,42.1s0,0.6,0.5,1.8c3.8,1.4,10,3.8,18.7,5.6 c3.6,0.8,7.7,1.5,12.2,2c-0.3-1.7-0.3-3.4,0-5.1c0.2-1.3,0.6-2.4,1.2-3.5c-11.9-2-20.9-5.8-21.4-11.4c-0.6-6.3,4.6-18.1,12.4-25 C177.1,35.7,188.1,32.6,199.3,32.3L199.3,32.3z M179.1,89.6c-5.1-0.5-9.7-1.3-13.8-2.2c-6.9-1.5-12.2-3.2-16.1-4.6 c0.7,1.1,1.5,2.3,2.6,3.6c6.5,7.9,14.6,13.3,24.4,16.7c3.1,1.1,6.3,1.9,9.5,2.6c0,0,0-0.1,0-0.1c-0.3-0.9-0.4-1.8-0.3-2.7 c0.4-2.3,2.1-3.7,4.3-4.6c-4.1-1.4-7.8-3.7-10-7.5C179.5,90.4,179.3,90,179.1,89.6L179.1,89.6z M189.6,104.1c0.5,1.2,2,2.1,4,2.8 c2.3,0.3,4.7,0.5,7.1,0.6c2.4-0.2,4.8-0.4,7.2-0.6c1.8-0.6,3.3-1.4,3.9-2.5C214.2,99.6,188,99.7,189.6,104.1L189.6,104.1z M252.1,82.9c-3.9,1.4-9.2,3.1-16,4.6c-4,0.9-8.6,1.6-13.8,2.2c-0.2,0.4-0.4,0.8-0.6,1.2c-2.2,3.7-5.9,6.1-10,7.4 c2.1,0.9,3.8,2.3,4.2,4.5c0.2,1,0.1,2-0.3,2.9c8-1.6,15.4-4.3,22.1-8.6c4.8-3.1,8.7-7.2,12.4-11.6 C250.8,84.6,251.5,83.8,252.1,82.9L252.1,82.9z M199.7,90.5c-1.1,1.9-3.4,4.9-8.2,3.9c-5.9-1.9-10.2-5.9-9.1-12.3 c1-5.8,10.5-9.3,18.4-9.3h0h0c7.8-0.1,17.4,3.5,18.4,9.3c0.9,5.5-2.2,9.2-6.8,11.4c-7,2.6-9.4-0.8-10.5-2.9c-0.5-1-0.7-1.6-1-1.6 c0,0,0,0-0.1,0C200.5,89.1,200.2,89.6,199.7,90.5L199.7,90.5z M200.7,75.5c-4.7,0-10.5,1.4-11.1,4.3c-0.9,4.9,6.3,7.3,11.1,7.3h0 h0h0.1c4.7,0,11.9-2.4,11-7.3C211.3,76.9,205.5,75.5,200.7,75.5L200.7,75.5L200.7,75.5z M187.5,65.9c0,1-0.8,1.8-1.8,1.8 c-1,0-1.8-0.8-1.8-1.8c0-2-0.7-3.9-1.9-5.2c-1.1-1.3-2.6-2-4.3-2c-1.1,0-2.2,0.4-3.1,1c-1,0.7-1.8,1.6-2.3,2.8 c-0.4,0.9-1.5,1.3-2.3,0.8c-0.9-0.4-1.3-1.5-0.8-2.3c0.8-1.7,2-3.2,3.5-4.2c1.5-1,3.2-1.6,5-1.6c2.7,0,5.1,1.2,6.9,3.2 C186.4,60.4,187.5,63,187.5,65.9L187.5,65.9z M214,65.9c0,1,0.8,1.8,1.8,1.8c1,0,1.8-0.8,1.8-1.8c0-2,0.7-3.9,1.9-5.2 c1.1-1.3,2.6-2,4.3-2c1.1,0,2.2,0.4,3.1,1c1,0.7,1.8,1.6,2.3,2.8c0.4,0.9,1.5,1.3,2.3,0.8c0.9-0.4,1.3-1.5,0.9-2.3 c-0.8-1.7-2-3.2-3.5-4.2c-1.5-1-3.2-1.6-5-1.6c-2.7,0-5.1,1.2-6.9,3.2C215,60.4,214,63,214,65.9L214,65.9z M215.4,113 c-3.8,1.2-7.7,1.9-11.6,2.2c-4.9,0.3-9.7-0.1-14.5-1.3c-4.1-1-8-2.5-11.7-4.5c-1.5-0.4-3.1-1-4.6-1.5c3.3,4.4,8.1,8.4,14.7,10.6 c-6-1-12-2.8-16.7-6.1c-3,6.5-4.9,15.7-3.4,28.1c0.3,2.8,0.8,5.5,1.3,8c7.9-3.6,13.4-2.2,20.2,2.4c0.8-10.8,3.1-18.9,4.1-22.2 c0.5-1.4,1.1-2.1,1.9-2.2c0.9-0.1,2.4,0,2.3,2.6c-0.3,1.1-0.5,2.3-0.7,3.2c-0.5,2.4-0.8,4.9-1.2,7.3c-0.4,2.4-0.7,4.8-1,7.2 c-0.2,1.6-0.4,3.1-0.5,4.7c-0.1,0.9-0.1,1.8-0.1,2.7c3.7,0.4,7.4,0.4,11.1-0.1c0-0.9-0.1-1.7-0.1-2.6c-0.3-3.9-0.9-8-1.4-11.8 c-0.3-2.3-0.7-4.6-1.2-6.9c-0.3-1.3-0.6-3-1-4.2c0.1-2.6,3.5-3.1,4.4-0.3c1,3.1,3.5,11.5,4.3,22.9c6.2-3.5,14.3-6.2,20.2-2.9 c0.5-2.5,0.9-5.1,1.3-7.8c1.4-11.5-0.1-20.2-2.7-26.5c-4.7,2.8-10.7,4.3-16.5,5c7.3-2.1,12.4-6.3,16-11c-1.5,0.6-3,1.1-4.6,1.5 C221.5,110.8,218.6,112,215.4,113L215.4,113z M146.7,10.1c6.2,1.7,12.1,4.7,17.6,8.2c-2.2,1.8-4.4,3.8-6.4,6 c-1.1-1.8-2.2-3.5-3.4-5.1C152.3,16,149.7,12.8,146.7,10.1L146.7,10.1z M136.4,8.6c0.2,0,0.4,0,0.6,0c7,3.8,13.2,11.6,17.8,19.4 c-0.9,1.2-1.8,2.5-2.7,3.7c-3.4,5.1-6,10.7-7.8,16.5c-5.6-7.6-12.8-21.5-8-39.5C136.2,8.7,136.3,8.7,136.4,8.6L136.4,8.6z M265.1,8.6c-0.2,0-0.4,0-0.6,0c-7,3.8-13.2,11.6-17.8,19.4c0.8,1,1.5,2,2.2,3c3.7,5.3,6.4,11.1,8.4,17.2 c5.6-7.6,12.8-21.5,8-39.5C265.2,8.7,265.2,8.7,265.1,8.6L265.1,8.6z M254.7,10.1c-6.2,1.7-12.1,4.7-17.6,8.2 c2.2,1.8,4.4,3.8,6.4,6c1.1-1.8,2.2-3.5,3.4-5.1C249.2,16,251.8,12.8,254.7,10.1L254.7,10.1z M170.2,153.9 c2.2,8.3,5.1,14.6,7.1,18.4c0.4,0.8,0.7,1,1.5,1.5c2.4,1.5,5.9,3.1,6.5,9.2c-2.8-3.5-5.4-6.1-9.5-7c-2,0-4.3,0.4-5.8,2 c-3.4,3.5-0.9,9.5,1.1,10.1c2,0.6,23,0,23,0s0.9-3.9-0.8-6.1c-1.6-2.2-4.1-13.3-4.3-25.2C184.1,152.5,176.5,149.6,170.2,153.9 L170.2,153.9z M229.1,153.9c-2.2,8.3-5.1,14.6-7.1,18.4c-0.4,0.8-0.7,1-1.5,1.5c-2.4,1.5-5.9,3.1-6.5,9.2c2.8-3.5,5.4-6.1,9.5-7 c2,0,4.3,0.4,5.8,2c3.4,3.5,0.9,9.5-1.1,10.1c-2,0.6-23,0-23,0s-0.9-3.9,0.8-6.1c1.6-2.2,4.1-13.3,4.3-25.2 C215.2,152.5,222.8,149.6,229.1,153.9L229.1,153.9z M201.6,180.3c-0.6,0-1.3,0-1.9,0c-0.5,0-1,0-1.5,0c-0.2-0.4-0.5-0.9-0.8-1.3 c-0.3-0.5-0.6-1.6-0.8-2.2c-0.6-2.1-1.1-4.3-1.4-6.4c-0.7-4-1.1-8-1.1-12.1c3.8,0.5,7.7,0.5,11.5-0.1c-0.1,4.7-0.6,9.4-1.4,14 c-0.3,1.6-1.1,5.6-2,7C202,179.6,201.8,179.9,201.6,180.3L201.6,180.3z M247.4,154.9c0.2,11.3-7,15.8-11.2,19.2 c19-8.6,21.2,6.1,19.3,7.7h-19.7c-0.1-2.6-1.1-5.1-3-7c-1.5-1.5-3.3-2.5-5.2-3c1.5-3.2,2.8-6.5,3.8-9.8 C237,159,243.5,155.9,247.4,154.9L247.4,154.9z M237,138.3c4.8,2.2,7.8,7.3,8.4,12.9c-3.9,1.1-8.1,3.1-11.7,4.9 c1.3-4.9,2.3-9.9,2.9-15C236.8,140.2,236.9,139.2,237,138.3L237,138.3z M162.4,138.4c-4.7,2.3-7.6,7.3-8.3,12.9 c3.8,1.2,8,3.1,11.5,4.9c-1.3-4.9-2.3-9.9-2.9-15C162.6,140.2,162.5,139.3,162.4,138.4L162.4,138.4z M152,154.9 c-0.2,11.3,7,15.8,11.2,19.2c-19.1-8.6-21.2,6.1-19.3,7.7h19.4c0.1-2.7,1.1-5.3,3.1-7.3c1.4-1.5,3.1-2.4,5-3 c-0.4-0.8-0.8-1.6-1.1-2.5c-1.1-2.4-2-4.9-2.9-7.4C161.9,158.7,155.7,155.9,152,154.9L152,154.9z"></path> <linearGradient id="SVGID_4_" gradientUnits="userSpaceOnUse" x1="48.7394" y1="87.7794" x2="188.1637" y2="239.7362"> <stop offset="0" style="stop-color:#A677B4"></stop> <stop offset="0.3626" style="stop-color:#F0515A"></stop> <stop offset="1" style="stop-color:#2B338C"></stop> </linearGradient> <polygon class="st3" points="184.5,243.1 169.2,243.1 167.2,226 160.2,232.6 156.6,243.1 143.4,243.1 159,197.6 172.2,197.6 165.8,216.3 184.7,197.6 197.3,197.6 180.1,214.2 "></polygon> <linearGradient id="SVGID_5_" gradientUnits="userSpaceOnUse" x1="72.9657" y1="65.5511" x2="212.39" y2="217.5079"> <stop offset="0" style="stop-color:#A677B4"></stop> <stop offset="0.3626" style="stop-color:#F0515A"></stop> <stop offset="1" style="stop-color:#2B338C"></stop> </linearGradient> <polygon class="st4" points="212.1,208.5 200.2,243.1 188,243.1 187.7,241 198.8,208.5 189.5,208.5 200.8,197.6 242,197.6 221.5,208.5 "></polygon> <linearGradient id="SVGID_6_" gradientUnits="userSpaceOnUse" x1="82.989" y1="56.3545" x2="222.4133" y2="208.3113"> <stop offset="0" style="stop-color:#A677B4"></stop> <stop offset="0.3626" style="stop-color:#F0515A"></stop> <stop offset="1" style="stop-color:#2B338C"></stop> </linearGradient> <path class="st5" d="M225.7,243.8c-6.4,0-10.9-2.1-13.5-6.3c-2.6-4.2-2.7-9.8-0.2-16.8c2.3-6.7,6.2-12.2,11.6-16.6 c5.4-4.4,11.5-6.5,18.3-6.5c6.3,0,10.8,2.1,13.4,6.2c2.6,4.1,2.6,9.6,0.3,16.5c-2.5,7.1-6.5,12.8-12,17.1 C238,241.6,232.1,243.8,225.7,243.8L225.7,243.8z M229.2,233.6c2.4,0,4.4-1,6.2-3c1.7-2,3.6-5.7,5.4-11.1 c2.7-7.8,1.9-11.7-2.3-11.7c-4.6,0-8.5,4.5-11.6,13.4C224,229.4,224.7,233.6,229.2,233.6L229.2,233.6z"></path> <linearGradient id="SVGID_7_" gradientUnits="userSpaceOnUse" x1="104.6305" y1="36.4979" x2="244.0547" y2="188.4547"> <stop offset="0" style="stop-color:#A677B4"></stop> <stop offset="0.3626" style="stop-color:#F0515A"></stop> <stop offset="1" style="stop-color:#2B338C"></stop> </linearGradient> <path class="st6" d="M285,243.1h-11.4l-5.7-20.1c-0.7-2.6-1.2-5.7-1.5-9.5c-0.3,2.9-0.8,5.4-1.5,7.5l-7.5,22.1H246l15.6-45.5 h13.2l4.9,16.7c1,3.3,1.6,6.2,1.8,8.8c0.6-3.9,1.6-7.9,3-11.9l4.6-13.5h11.4L285,243.1z"></path> </g> </g> </g> </svg> 